<svg width="1366" height="634" xmlns="http://www.w3.org/2000/svg"><g><path d="M-81.02767078671604,-27.625581924803555L-119.46464942302555,364.8517431691289L-92.4901750870049,233.37382851168513Z" fill="#cc7774" stroke="#cc7774" fill-opacity="1" stroke-opacity="1"/><path d="M-81.02767078671604,-27.625581924803555L-92.4901750870049,233.37382851168513L-30.698497779667377,91.60073734819889Z" fill="#ce4e46" stroke="#ce4e46" fill-opacity="1" stroke-opacity="1"/><path d="M-81.02767078671604,-27.625581924803555L-30.698497779667377,91.60073734819889L33.76230311114341,44.22711650840938Z" fill="#c72d38" stroke="#c72d38" fill-opacity="1" stroke-opacity="1"/><path d="M-81.02767078671604,-27.625581924803555L33.76230311114341,44.22711650840938L51.674563135020435,-85.8730559470132Z" fill="#bf1028" stroke="#bf1028" fill-opacity="1" stroke-opacity="1"/><path d="M51.674563135020435,-85.8730559470132L33.76230311114341,44.22711650840938L195.49844211433083,74.4425130309537Z" fill="#d23c3e" stroke="#d23c3e" fill-opacity="1" stroke-opacity="1"/><path d="M51.674563135020435,-85.8730559470132L195.49844211433083,74.4425130309537L242.55983335897326,-93.60171051230282Z" fill="#d23538" stroke="#d23538" fill-opacity="1" stroke-opacity="1"/><path d="M51.674563135020435,-85.8730559470132L242.55983335897326,-93.60171051230282L537.2232332825661,-124.22639424912632Z" fill="#cf4e3c" stroke="#cf4e3c" fill-opacity="1" stroke-opacity="1"/><path d="M242.55983335897326,-93.60171051230282L195.49844211433083,74.4425130309537L375.76150172390044,102.09511546418071Z" fill="#e9705d" stroke="#e9705d" fill-opacity="1" stroke-opacity="1"/><path d="M242.55983335897326,-93.60171051230282L375.76150172390044,102.09511546418071L379.67877860646695,-78.85261960327625Z" fill="#e05b5b" stroke="#e05b5b" fill-opacity="1" stroke-opacity="1"/><path d="M242.55983335897326,-93.60171051230282L379.67877860646695,-78.85261960327625L537.2232332825661,-124.22639424912632Z" fill="#d36254" stroke="#d36254" fill-opacity="1" stroke-opacity="1"/><path d="M379.67877860646695,-78.85261960327625L375.76150172390044,102.09511546418071L546.6683105565608,26.366274431347847Z" fill="#ec857e" stroke="#ec857e" fill-opacity="1" stroke-opacity="1"/><path d="M379.67877860646695,-78.85261960327625L546.6683105565608,26.366274431347847L537.2232332825661,-124.22639424912632Z" fill="#db6e6d" stroke="#db6e6d" fill-opacity="1" stroke-opacity="1"/><path d="M537.2232332825661,-124.22639424912632L546.6683105565608,26.366274431347847L650.8368705864996,-120.23721022997051Z" fill="#d26f6d" stroke="#d26f6d" fill-opacity="1" stroke-opacity="1"/><path d="M537.2232332825661,-124.22639424912632L650.8368705864996,-120.23721022997051L1593.71017718222,-98.78086836542934Z" fill="#9c4a4a" stroke="#9c4a4a" fill-opacity="1" stroke-opacity="1"/><path d="M650.8368705864996,-120.23721022997051L546.6683105565608,26.366274431347847L699.7184388106689,42.13966405950487Z" fill="#da7781" stroke="#da7781" fill-opacity="1" stroke-opacity="1"/><path d="M650.8368705864996,-120.23721022997051L699.7184388106689,42.13966405950487L803.128192271106,-39.78187639731914Z" fill="#cd6b78" stroke="#cd6b78" fill-opacity="1" stroke-opacity="1"/><path d="M650.8368705864996,-120.23721022997051L803.128192271106,-39.78187639731914L1008.294578990899,-85.47523096203804Z" fill="#b45b5b" stroke="#b45b5b" fill-opacity="1" stroke-opacity="1"/><path d="M650.8368705864996,-120.23721022997051L1008.294578990899,-85.47523096203804L1288.7628190917894,-87.77430665213615Z" fill="#974141" stroke="#974141" fill-opacity="1" stroke-opacity="1"/><path d="M650.8368705864996,-120.23721022997051L1288.7628190917894,-87.77430665213615L1593.71017718222,-98.78086836542934Z" fill="#752020" stroke="#752020" fill-opacity="1" stroke-opacity="1"/><path d="M803.128192271106,-39.78187639731914L699.7184388106689,42.13966405950487L870.7853981526569,90.74802442919463Z" fill="#d08482" stroke="#d08482" fill-opacity="1" stroke-opacity="1"/><path d="M803.128192271106,-39.78187639731914L870.7853981526569,90.74802442919463L947.9230668395758,92.52436300739646Z" fill="#c6817b" stroke="#c6817b" fill-opacity="1" stroke-opacity="1"/><path d="M803.128192271106,-39.78187639731914L947.9230668395758,92.52436300739646L1008.294578990899,-85.47523096203804Z" fill="#b35661" stroke="#b35661" fill-opacity="1" stroke-opacity="1"/><path d="M1008.294578990899,-85.47523096203804L947.9230668395758,92.52436300739646L1132.7037391485646,44.10721769090742Z" fill="#a65558" stroke="#a65558" fill-opacity="1" stroke-opacity="1"/><path d="M1008.294578990899,-85.47523096203804L1132.7037391485646,44.10721769090742L1107.7675696462393,-67.6380097400397Z" fill="#92303e" stroke="#92303e" fill-opacity="1" stroke-opacity="1"/><path d="M1008.294578990899,-85.47523096203804L1107.7675696462393,-67.6380097400397L1288.7628190917894,-87.77430665213615Z" fill="#812728" stroke="#812728" fill-opacity="1" stroke-opacity="1"/><path d="M1107.7675696462393,-67.6380097400397L1132.7037391485646,44.10721769090742L1284.318534214981,30.172429839149117Z" fill="#8b343b" stroke="#8b343b" fill-opacity="1" stroke-opacity="1"/><path d="M1107.7675696462393,-67.6380097400397L1284.318534214981,30.172429839149117L1288.7628190917894,-87.77430665213615Z" fill="#791824" stroke="#791824" fill-opacity="1" stroke-opacity="1"/><path d="M1288.7628190917894,-87.77430665213615L1284.318534214981,30.172429839149117L1411.4497647155076,-88.08345890138298Z" fill="#670712" stroke="#670712" fill-opacity="1" stroke-opacity="1"/><path d="M1288.7628190917894,-87.77430665213615L1411.4497647155076,-88.08345890138298L1593.71017718222,-98.78086836542934Z" fill="#580000" stroke="#580000" fill-opacity="1" stroke-opacity="1"/><path d="M1411.4497647155076,-88.08345890138298L1284.318534214981,30.172429839149117L1384.9434907082468,108.06505696382374Z" fill="#6f1d20" stroke="#6f1d20" fill-opacity="1" stroke-opacity="1"/><path d="M1411.4497647155076,-88.08345890138298L1384.9434907082468,108.06505696382374L1561.177686555311,111.63188982754946Z" fill="#732d27" stroke="#732d27" fill-opacity="1" stroke-opacity="1"/><path d="M1411.4497647155076,-88.08345890138298L1561.177686555311,111.63188982754946L1593.71017718222,-98.78086836542934Z" fill="#650212" stroke="#650212" fill-opacity="1" stroke-opacity="1"/><path d="M1593.71017718222,-98.78086836542934L1561.177686555311,111.63188982754946L1623.8645108416677,212.4425676651299Z" fill="#7a4031" stroke="#7a4031" fill-opacity="1" stroke-opacity="1"/><path d="M-30.698497779667377,91.60073734819889L-92.4901750870049,233.37382851168513L74.71267238724977,271.5057174442336Z" fill="#d78283" stroke="#d78283" fill-opacity="1" stroke-opacity="1"/><path d="M-30.698497779667377,91.60073734819889L74.71267238724977,271.5057174442336L33.76230311114341,44.22711650840938Z" fill="#dc7264" stroke="#dc7264" fill-opacity="1" stroke-opacity="1"/><path d="M33.76230311114341,44.22711650840938L74.71267238724977,271.5057174442336L195.49844211433083,74.4425130309537Z" fill="#e6826a" stroke="#e6826a" fill-opacity="1" stroke-opacity="1"/><path d="M195.49844211433083,74.4425130309537L74.71267238724977,271.5057174442336L210.31526795122772,211.83180196676403Z" fill="#eea991" stroke="#eea991" fill-opacity="1" stroke-opacity="1"/><path d="M195.49844211433083,74.4425130309537L210.31526795122772,211.83180196676403L375.76150172390044,102.09511546418071Z" fill="#f8a781" stroke="#f8a781" fill-opacity="1" stroke-opacity="1"/><path d="M375.76150172390044,102.09511546418071L210.31526795122772,211.83180196676403L359.86267945263535,214.1261318232864Z" fill="#fac5a7" stroke="#fac5a7" fill-opacity="1" stroke-opacity="1"/><path d="M375.76150172390044,102.09511546418071L359.86267945263535,214.1261318232864L516.9607552234083,223.62072432879359Z" fill="#fdd9c0" stroke="#fdd9c0" fill-opacity="1" stroke-opacity="1"/><path d="M375.76150172390044,102.09511546418071L516.9607552234083,223.62072432879359L546.6683105565608,26.366274431347847Z" fill="#fdc5a6" stroke="#fdc5a6" fill-opacity="1" stroke-opacity="1"/><path d="M546.6683105565608,26.366274431347847L516.9607552234083,223.62072432879359L681.0241203987971,190.33080842345953Z" fill="#f6d3bd" stroke="#f6d3bd" fill-opacity="1" stroke-opacity="1"/><path d="M546.6683105565608,26.366274431347847L681.0241203987971,190.33080842345953L699.7184388106689,42.13966405950487Z" fill="#eeb6a3" stroke="#eeb6a3" fill-opacity="1" stroke-opacity="1"/><path d="M699.7184388106689,42.13966405950487L681.0241203987971,190.33080842345953L870.7853981526569,90.74802442919463Z" fill="#e5b9a1" stroke="#e5b9a1" fill-opacity="1" stroke-opacity="1"/><path d="M870.7853981526569,90.74802442919463L681.0241203987971,190.33080842345953L824.946441152133,225.50833167042583Z" fill="#dfccbe" stroke="#dfccbe" fill-opacity="1" stroke-opacity="1"/><path d="M870.7853981526569,90.74802442919463L824.946441152133,225.50833167042583L947.9230668395758,92.52436300739646Z" fill="#d1b09d" stroke="#d1b09d" fill-opacity="1" stroke-opacity="1"/><path d="M947.9230668395758,92.52436300739646L824.946441152133,225.50833167042583L973.7597207305953,270.7033955492079Z" fill="#cbc5ba" stroke="#cbc5ba" fill-opacity="1" stroke-opacity="1"/><path d="M947.9230668395758,92.52436300739646L973.7597207305953,270.7033955492079L1171.7986503150314,176.55737213790417Z" fill="#b8ab9d" stroke="#b8ab9d" fill-opacity="1" stroke-opacity="1"/><path d="M947.9230668395758,92.52436300739646L1171.7986503150314,176.55737213790417L1132.7037391485646,44.10721769090742Z" fill="#af816a" stroke="#af816a" fill-opacity="1" stroke-opacity="1"/><path d="M1132.7037391485646,44.10721769090742L1171.7986503150314,176.55737213790417L1284.318534214981,30.172429839149117Z" fill="#986251" stroke="#986251" fill-opacity="1" stroke-opacity="1"/><path d="M1284.318534214981,30.172429839149117L1171.7986503150314,176.55737213790417L1292.0237441081554,181.32474403828382Z" fill="#94705c" stroke="#94705c" fill-opacity="1" stroke-opacity="1"/><path d="M1284.318534214981,30.172429839149117L1292.0237441081554,181.32474403828382L1384.9434907082468,108.06505696382374Z" fill="#885b43" stroke="#885b43" fill-opacity="1" stroke-opacity="1"/><path d="M1384.9434907082468,108.06505696382374L1292.0237441081554,181.32474403828382L1438.2922831224278,210.22047083824873Z" fill="#806c5d" stroke="#806c5d" fill-opacity="1" stroke-opacity="1"/><path d="M1384.9434907082468,108.06505696382374L1438.2922831224278,210.22047083824873L1561.177686555311,111.63188982754946Z" fill="#806250" stroke="#806250" fill-opacity="1" stroke-opacity="1"/><path d="M1561.177686555311,111.63188982754946L1438.2922831224278,210.22047083824873L1623.8645108416677,212.4425676651299Z" fill="#807164" stroke="#807164" fill-opacity="1" stroke-opacity="1"/><path d="M-92.4901750870049,233.37382851168513L-119.46464942302555,364.8517431691289L30.799709353595972,389.1763676190749Z" fill="#cd7c8a" stroke="#cd7c8a" fill-opacity="1" stroke-opacity="1"/><path d="M-92.4901750870049,233.37382851168513L30.799709353595972,389.1763676190749L74.71267238724977,271.5057174442336Z" fill="#d98d94" stroke="#d98d94" fill-opacity="1" stroke-opacity="1"/><path d="M74.71267238724977,271.5057174442336L30.799709353595972,389.1763676190749L253.97585828322917,351.5062035061419Z" fill="#e2a39d" stroke="#e2a39d" fill-opacity="1" stroke-opacity="1"/><path d="M74.71267238724977,271.5057174442336L253.97585828322917,351.5062035061419L210.31526795122772,211.83180196676403Z" fill="#f1b9a7" stroke="#f1b9a7" fill-opacity="1" stroke-opacity="1"/><path d="M210.31526795122772,211.83180196676403L253.97585828322917,351.5062035061419L359.86267945263535,214.1261318232864Z" fill="#f9cdb6" stroke="#f9cdb6" fill-opacity="1" stroke-opacity="1"/><path d="M359.86267945263535,214.1261318232864L253.97585828322917,351.5062035061419L391.9352409662679,421.10171751119196Z" fill="#f7d4c5" stroke="#f7d4c5" fill-opacity="1" stroke-opacity="1"/><path d="M359.86267945263535,214.1261318232864L391.9352409662679,421.10171751119196L516.9607552234083,223.62072432879359Z" fill="#fde7da" stroke="#fde7da" fill-opacity="1" stroke-opacity="1"/><path d="M516.9607552234083,223.62072432879359L391.9352409662679,421.10171751119196L554.1675950167701,373.58885935973376Z" fill="#f4e6dd" stroke="#f4e6dd" fill-opacity="1" stroke-opacity="1"/><path d="M516.9607552234083,223.62072432879359L554.1675950167701,373.58885935973376L681.0241203987971,190.33080842345953Z" fill="#f6efe6" stroke="#f6efe6" fill-opacity="1" stroke-opacity="1"/><path d="M681.0241203987971,190.33080842345953L554.1675950167701,373.58885935973376L705.8674682863057,421.3184839114547Z" fill="#eeebea" stroke="#eeebea" fill-opacity="1" stroke-opacity="1"/><path d="M681.0241203987971,190.33080842345953L705.8674682863057,421.3184839114547L817.3511370783672,327.4595976341516Z" fill="#e8e8e7" stroke="#e8e8e7" fill-opacity="1" stroke-opacity="1"/><path d="M681.0241203987971,190.33080842345953L817.3511370783672,327.4595976341516L824.946441152133,225.50833167042583Z" fill="#e1e1db" stroke="#e1e1db" fill-opacity="1" stroke-opacity="1"/><path d="M824.946441152133,225.50833167042583L817.3511370783672,327.4595976341516L973.7597207305953,270.7033955492079Z" fill="#d2d2cf" stroke="#d2d2cf" fill-opacity="1" stroke-opacity="1"/><path d="M973.7597207305953,270.7033955492079L817.3511370783672,327.4595976341516L955.3315141703933,371.73967491835356Z" fill="#c9c9c9" stroke="#c9c9c9" fill-opacity="1" stroke-opacity="1"/><path d="M973.7597207305953,270.7033955492079L955.3315141703933,371.73967491835356L1148.7997996620834,369.59500266239047Z" fill="#b2b2b2" stroke="#b2b2b2" fill-opacity="1" stroke-opacity="1"/><path d="M973.7597207305953,270.7033955492079L1148.7997996620834,369.59500266239047L1171.7986503150314,176.55737213790417Z" fill="#adada9" stroke="#adada9" fill-opacity="1" stroke-opacity="1"/><path d="M1171.7986503150314,176.55737213790417L1148.7997996620834,369.59500266239047L1292.0237441081554,181.32474403828382Z" fill="#9b9b95" stroke="#9b9b95" fill-opacity="1" stroke-opacity="1"/><path d="M1292.0237441081554,181.32474403828382L1148.7997996620834,369.59500266239047L1308.287041541189,413.785892771557Z" fill="#929292" stroke="#929292" fill-opacity="1" stroke-opacity="1"/><path d="M1292.0237441081554,181.32474403828382L1308.287041541189,413.785892771557L1438.2922831224278,210.22047083824873Z" fill="#848480" stroke="#848480" fill-opacity="1" stroke-opacity="1"/><path d="M1438.2922831224278,210.22047083824873L1308.287041541189,413.785892771557L1462.690076744184,394.67086128424853Z" fill="#787878" stroke="#787878" fill-opacity="1" stroke-opacity="1"/><path d="M1438.2922831224278,210.22047083824873L1462.690076744184,394.67086128424853L1531.2775446800515,352.56026254501194Z" fill="#7f7f7f" stroke="#7f7f7f" fill-opacity="1" stroke-opacity="1"/><path d="M1438.2922831224278,210.22047083824873L1531.2775446800515,352.56026254501194L1623.8645108416677,212.4425676651299Z" fill="#80807b" stroke="#80807b" fill-opacity="1" stroke-opacity="1"/><path d="M1623.8645108416677,212.4425676651299L1531.2775446800515,352.56026254501194L1539.5557385170832,567.4527208786458Z" fill="#6b6b6b" stroke="#6b6b6b" fill-opacity="1" stroke-opacity="1"/><path d="M1623.8645108416677,212.4425676651299L1539.5557385170832,567.4527208786458L1602.00929408893,698.5022899927571Z" fill="#3d3d3d" stroke="#3d3d3d" fill-opacity="1" stroke-opacity="1"/><path d="M1623.8645108416677,212.4425676651299L1602.00929408893,698.5022899927571L1615.6626651296392,840.9276409540325Z" fill="#171717" stroke="#171717" fill-opacity="1" stroke-opacity="1"/><path d="M-119.46464942302555,364.8517431691289L-109.03068422339857,784.6560937352479L-55.101613444276154,687.0809047017246Z" fill="#570b15" stroke="#570b15" fill-opacity="1" stroke-opacity="1"/><path d="M-119.46464942302555,364.8517431691289L-55.101613444276154,687.0809047017246L-39.48852370958775,511.5530888084322Z" fill="#81313e" stroke="#81313e" fill-opacity="1" stroke-opacity="1"/><path d="M-119.46464942302555,364.8517431691289L-39.48852370958775,511.5530888084322L30.799709353595972,389.1763676190749Z" fill="#af5d6c" stroke="#af5d6c" fill-opacity="1" stroke-opacity="1"/><path d="M30.799709353595972,389.1763676190749L-39.48852370958775,511.5530888084322L71.38132699765265,498.17481578793377Z" fill="#a55a61" stroke="#a55a61" fill-opacity="1" stroke-opacity="1"/><path d="M30.799709353595972,389.1763676190749L71.38132699765265,498.17481578793377L253.97585828322917,351.5062035061419Z" fill="#c88883" stroke="#c88883" fill-opacity="1" stroke-opacity="1"/><path d="M253.97585828322917,351.5062035061419L71.38132699765265,498.17481578793377L237.7169257728383,503.2607044558972Z" fill="#c18a7b" stroke="#c18a7b" fill-opacity="1" stroke-opacity="1"/><path d="M253.97585828322917,351.5062035061419L237.7169257728383,503.2607044558972L391.9352409662679,421.10171751119196Z" fill="#d4ab9a" stroke="#d4ab9a" fill-opacity="1" stroke-opacity="1"/><path d="M391.9352409662679,421.10171751119196L237.7169257728383,503.2607044558972L424.2617360781878,487.8042526077479Z" fill="#c2a293" stroke="#c2a293" fill-opacity="1" stroke-opacity="1"/><path d="M391.9352409662679,421.10171751119196L424.2617360781878,487.8042526077479L554.1675950167701,373.58885935973376Z" fill="#d8c7bd" stroke="#d8c7bd" fill-opacity="1" stroke-opacity="1"/><path d="M554.1675950167701,373.58885935973376L424.2617360781878,487.8042526077479L563.7717369245365,492.0964263146743Z" fill="#cabdb6" stroke="#cabdb6" fill-opacity="1" stroke-opacity="1"/><path d="M554.1675950167701,373.58885935973376L563.7717369245365,492.0964263146743L643.99666369427,487.58103798609227Z" fill="#c5beba" stroke="#c5beba" fill-opacity="1" stroke-opacity="1"/><path d="M554.1675950167701,373.58885935973376L643.99666369427,487.58103798609227L705.8674682863057,421.3184839114547Z" fill="#ccc9c7" stroke="#ccc9c7" fill-opacity="1" stroke-opacity="1"/><path d="M705.8674682863057,421.3184839114547L643.99666369427,487.58103798609227L870.562754641287,496.53087097685784Z" fill="#afafaf" stroke="#afafaf" fill-opacity="1" stroke-opacity="1"/><path d="M705.8674682863057,421.3184839114547L870.562754641287,496.53087097685784L817.3511370783672,327.4595976341516Z" fill="#bcbcbc" stroke="#bcbcbc" fill-opacity="1" stroke-opacity="1"/><path d="M817.3511370783672,327.4595976341516L870.562754641287,496.53087097685784L955.3315141703933,371.73967491835356Z" fill="#b5b5b5" stroke="#b5b5b5" fill-opacity="1" stroke-opacity="1"/><path d="M955.3315141703933,371.73967491835356L870.562754641287,496.53087097685784L972.1019130432978,554.4713598443195Z" fill="#8e8e8e" stroke="#8e8e8e" fill-opacity="1" stroke-opacity="1"/><path d="M955.3315141703933,371.73967491835356L972.1019130432978,554.4713598443195L1148.7997996620834,369.59500266239047Z" fill="#919191" stroke="#919191" fill-opacity="1" stroke-opacity="1"/><path d="M1148.7997996620834,369.59500266239047L972.1019130432978,554.4713598443195L1158.521848381497,567.397321248427Z" fill="#6a6a6a" stroke="#6a6a6a" fill-opacity="1" stroke-opacity="1"/><path d="M1148.7997996620834,369.59500266239047L1158.521848381497,567.397321248427L1310.3614932158962,497.1583704929799Z" fill="#5f5f5f" stroke="#5f5f5f" fill-opacity="1" stroke-opacity="1"/><path d="M1148.7997996620834,369.59500266239047L1310.3614932158962,497.1583704929799L1308.287041541189,413.785892771557Z" fill="#6c6c6c" stroke="#6c6c6c" fill-opacity="1" stroke-opacity="1"/><path d="M1308.287041541189,413.785892771557L1310.3614932158962,497.1583704929799L1462.690076744184,394.67086128424853Z" fill="#575757" stroke="#575757" fill-opacity="1" stroke-opacity="1"/><path d="M1462.690076744184,394.67086128424853L1310.3614932158962,497.1583704929799L1378.9179668063298,555.2615800173953Z" fill="#424242" stroke="#424242" fill-opacity="1" stroke-opacity="1"/><path d="M1462.690076744184,394.67086128424853L1378.9179668063298,555.2615800173953L1539.5557385170832,567.4527208786458Z" fill="#383838" stroke="#383838" fill-opacity="1" stroke-opacity="1"/><path d="M1462.690076744184,394.67086128424853L1539.5557385170832,567.4527208786458L1531.2775446800515,352.56026254501194Z" fill="#555555" stroke="#555555" fill-opacity="1" stroke-opacity="1"/><path d="M-39.48852370958775,511.5530888084322L-55.101613444276154,687.0809047017246L39.333871845155954,641.5547168813646Z" fill="#61121e" stroke="#61121e" fill-opacity="1" stroke-opacity="1"/><path d="M-39.48852370958775,511.5530888084322L39.333871845155954,641.5547168813646L71.38132699765265,498.17481578793377Z" fill="#81373d" stroke="#81373d" fill-opacity="1" stroke-opacity="1"/><path d="M71.38132699765265,498.17481578793377L39.333871845155954,641.5547168813646L237.7169257728383,503.2607044558972Z" fill="#8f4f4a" stroke="#8f4f4a" fill-opacity="1" stroke-opacity="1"/><path d="M237.7169257728383,503.2607044558972L39.333871845155954,641.5547168813646L274.9948870623484,718.0860836058855Z" fill="#784132" stroke="#784132" fill-opacity="1" stroke-opacity="1"/><path d="M237.7169257728383,503.2607044558972L274.9948870623484,718.0860836058855L389.91000389214605,639.7400796879083Z" fill="#815948" stroke="#815948" fill-opacity="1" stroke-opacity="1"/><path d="M237.7169257728383,503.2607044558972L389.91000389214605,639.7400796879083L424.2617360781878,487.8042526077479Z" fill="#a38374" stroke="#a38374" fill-opacity="1" stroke-opacity="1"/><path d="M424.2617360781878,487.8042526077479L389.91000389214605,639.7400796879083L536.9407921796665,658.775046793744Z" fill="#907e74" stroke="#907e74" fill-opacity="1" stroke-opacity="1"/><path d="M424.2617360781878,487.8042526077479L536.9407921796665,658.775046793744L563.7717369245365,492.0964263146743Z" fill="#a2958d" stroke="#a2958d" fill-opacity="1" stroke-opacity="1"/><path d="M563.7717369245365,492.0964263146743L536.9407921796665,658.775046793744L643.99666369427,487.58103798609227Z" fill="#9d9691" stroke="#9d9691" fill-opacity="1" stroke-opacity="1"/><path d="M643.99666369427,487.58103798609227L536.9407921796665,658.775046793744L690.9861861495301,680.2854573354125Z" fill="#807b79" stroke="#807b79" fill-opacity="1" stroke-opacity="1"/><path d="M643.99666369427,487.58103798609227L690.9861861495301,680.2854573354125L800.097682676278,649.8882306972519Z" fill="#797979" stroke="#797979" fill-opacity="1" stroke-opacity="1"/><path d="M643.99666369427,487.58103798609227L800.097682676278,649.8882306972519L870.562754641287,496.53087097685784Z" fill="#898989" stroke="#898989" fill-opacity="1" stroke-opacity="1"/><path d="M870.562754641287,496.53087097685784L800.097682676278,649.8882306972519L972.1019130432978,554.4713598443195Z" fill="#6f6f6f" stroke="#6f6f6f" fill-opacity="1" stroke-opacity="1"/><path d="M972.1019130432978,554.4713598443195L800.097682676278,649.8882306972519L993.7025659019127,708.4532363107428Z" fill="#4b4b4b" stroke="#4b4b4b" fill-opacity="1" stroke-opacity="1"/><path d="M972.1019130432978,554.4713598443195L993.7025659019127,708.4532363107428L1109.686756064184,670.6506884656847Z" fill="#3a3a3a" stroke="#3a3a3a" fill-opacity="1" stroke-opacity="1"/><path d="M972.1019130432978,554.4713598443195L1109.686756064184,670.6506884656847L1158.521848381497,567.397321248427Z" fill="#414141" stroke="#414141" fill-opacity="1" stroke-opacity="1"/><path d="M1158.521848381497,567.397321248427L1109.686756064184,670.6506884656847L1291.9916099635884,658.0883848713711Z" fill="#212121" stroke="#212121" fill-opacity="1" stroke-opacity="1"/><path d="M1158.521848381497,567.397321248427L1291.9916099635884,658.0883848713711L1310.3614932158962,497.1583704929799Z" fill="#2e2e2e" stroke="#2e2e2e" fill-opacity="1" stroke-opacity="1"/><path d="M1310.3614932158962,497.1583704929799L1291.9916099635884,658.0883848713711L1378.9179668063298,555.2615800173953Z" fill="#232323" stroke="#232323" fill-opacity="1" stroke-opacity="1"/><path d="M1378.9179668063298,555.2615800173953L1291.9916099635884,658.0883848713711L1395.3202416421846,643.9514008583501Z" fill="#0a0a0a" stroke="#0a0a0a" fill-opacity="1" stroke-opacity="1"/><path d="M1378.9179668063298,555.2615800173953L1395.3202416421846,643.9514008583501L1539.5557385170832,567.4527208786458Z" fill="#141414" stroke="#141414" fill-opacity="1" stroke-opacity="1"/><path d="M1539.5557385170832,567.4527208786458L1395.3202416421846,643.9514008583501L1602.00929408893,698.5022899927571Z" fill="#000000" stroke="#000000" fill-opacity="1" stroke-opacity="1"/><path d="M-55.101613444276154,687.0809047017246L-109.03068422339857,784.6560937352479L69.18710952159017,795.8042760146782Z" fill="#550412" stroke="#550412" fill-opacity="1" stroke-opacity="1"/><path d="M-55.101613444276154,687.0809047017246L69.18710952159017,795.8042760146782L39.333871845155954,641.5547168813646Z" fill="#5c1118" stroke="#5c1118" fill-opacity="1" stroke-opacity="1"/><path d="M39.333871845155954,641.5547168813646L69.18710952159017,795.8042760146782L274.9948870623484,718.0860836058855Z" fill="#6a2c25" stroke="#6a2c25" fill-opacity="1" stroke-opacity="1"/><path d="M274.9948870623484,718.0860836058855L69.18710952159017,795.8042760146782L235.76116003096104,857.3817699449137Z" fill="#733d2d" stroke="#733d2d" fill-opacity="1" stroke-opacity="1"/><path d="M274.9948870623484,718.0860836058855L235.76116003096104,857.3817699449137L384.0390260098502,795.3373425640166Z" fill="#7a5241" stroke="#7a5241" fill-opacity="1" stroke-opacity="1"/><path d="M274.9948870623484,718.0860836058855L384.0390260098502,795.3373425640166L389.91000389214605,639.7400796879083Z" fill="#7c5b4c" stroke="#7c5b4c" fill-opacity="1" stroke-opacity="1"/><path d="M389.91000389214605,639.7400796879083L384.0390260098502,795.3373425640166L536.9407921796665,658.775046793744Z" fill="#7e6a60" stroke="#7e6a60" fill-opacity="1" stroke-opacity="1"/><path d="M536.9407921796665,658.775046793744L384.0390260098502,795.3373425640166L507.8921459149569,813.3677548728883Z" fill="#7d6e65" stroke="#7d6e65" fill-opacity="1" stroke-opacity="1"/><path d="M536.9407921796665,658.775046793744L507.8921459149569,813.3677548728883L690.9861861495301,680.2854573354125Z" fill="#776f6b" stroke="#776f6b" fill-opacity="1" stroke-opacity="1"/><path d="M690.9861861495301,680.2854573354125L507.8921459149569,813.3677548728883L708.8661247165874,857.3548426153138Z" fill="#73706e" stroke="#73706e" fill-opacity="1" stroke-opacity="1"/><path d="M690.9861861495301,680.2854573354125L708.8661247165874,857.3548426153138L866.4801184786484,802.7234247419983Z" fill="#656565" stroke="#656565" fill-opacity="1" stroke-opacity="1"/><path d="M690.9861861495301,680.2854573354125L866.4801184786484,802.7234247419983L800.097682676278,649.8882306972519Z" fill="#606060" stroke="#606060" fill-opacity="1" stroke-opacity="1"/><path d="M800.097682676278,649.8882306972519L866.4801184786484,802.7234247419983L993.7025659019127,708.4532363107428Z" fill="#505050" stroke="#505050" fill-opacity="1" stroke-opacity="1"/><path d="M993.7025659019127,708.4532363107428L866.4801184786484,802.7234247419983L1017.6824014401063,858.8095946237445Z" fill="#454545" stroke="#454545" fill-opacity="1" stroke-opacity="1"/><path d="M993.7025659019127,708.4532363107428L1017.6824014401063,858.8095946237445L1140.8516905736178,790.585854020901Z" fill="#353535" stroke="#353535" fill-opacity="1" stroke-opacity="1"/><path d="M993.7025659019127,708.4532363107428L1140.8516905736178,790.585854020901L1109.686756064184,670.6506884656847Z" fill="#303030" stroke="#303030" fill-opacity="1" stroke-opacity="1"/><path d="M1109.686756064184,670.6506884656847L1140.8516905736178,790.585854020901L1291.9916099635884,658.0883848713711Z" fill="#202020" stroke="#202020" fill-opacity="1" stroke-opacity="1"/><path d="M1291.9916099635884,658.0883848713711L1140.8516905736178,790.585854020901L1234.0444735484198,838.2431895006448Z" fill="#191919" stroke="#191919" fill-opacity="1" stroke-opacity="1"/><path d="M1291.9916099635884,658.0883848713711L1234.0444735484198,838.2431895006448L1418.742818175815,796.9723023008555Z" fill="#090909" stroke="#090909" fill-opacity="1" stroke-opacity="1"/><path d="M1291.9916099635884,658.0883848713711L1418.742818175815,796.9723023008555L1395.3202416421846,643.9514008583501Z" fill="#000000" stroke="#000000" fill-opacity="1" stroke-opacity="1"/><path d="M1395.3202416421846,643.9514008583501L1418.742818175815,796.9723023008555L1602.00929408893,698.5022899927571Z" fill="#000000" stroke="#000000" fill-opacity="1" stroke-opacity="1"/><path d="M1602.00929408893,698.5022899927571L1418.742818175815,796.9723023008555L1615.6626651296392,840.9276409540325Z" fill="#000000" stroke="#000000" fill-opacity="1" stroke-opacity="1"/><path d="M-109.03068422339857,784.6560937352479L235.76116003096104,857.3817699449137L69.18710952159017,795.8042760146782Z" fill="#621d1e" stroke="#621d1e" fill-opacity="1" stroke-opacity="1"/><path d="M235.76116003096104,857.3817699449137L1017.6824014401063,858.8095946237445L708.8661247165874,857.3548426153138Z" fill="#72706f" stroke="#72706f" fill-opacity="1" stroke-opacity="1"/><path d="M235.76116003096104,857.3817699449137L708.8661247165874,857.3548426153138L507.8921459149569,813.3677548728883Z" fill="#7d6e65" stroke="#7d6e65" fill-opacity="1" stroke-opacity="1"/><path d="M235.76116003096104,857.3817699449137L507.8921459149569,813.3677548728883L384.0390260098502,795.3373425640166Z" fill="#7c6052" stroke="#7c6052" fill-opacity="1" stroke-opacity="1"/><path d="M708.8661247165874,857.3548426153138L1017.6824014401063,858.8095946237445L866.4801184786484,802.7234247419983Z" fill="#545454" stroke="#545454" fill-opacity="1" stroke-opacity="1"/><path d="M1017.6824014401063,858.8095946237445L1615.6626651296392,840.9276409540325L1234.0444735484198,838.2431895006448Z" fill="#0e0e0e" stroke="#0e0e0e" fill-opacity="1" stroke-opacity="1"/><path d="M1017.6824014401063,858.8095946237445L1234.0444735484198,838.2431895006448L1140.8516905736178,790.585854020901Z" fill="#282828" stroke="#282828" fill-opacity="1" stroke-opacity="1"/><path d="M1234.0444735484198,838.2431895006448L1615.6626651296392,840.9276409540325L1418.742818175815,796.9723023008555Z" fill="#000000" stroke="#000000" fill-opacity="1" stroke-opacity="1"/></g></svg>