<svg width="1366" height="634" xmlns="http://www.w3.org/2000/svg"><g><path d="M-108.56087647844106,-43.93261605873704L-94.5210333680734,652.3804906988516L-72.4760398734361,258.30526505596936Z" fill="#d6dff7" stroke="#d6dff7" fill-opacity="1" stroke-opacity="1"/><path d="M-108.56087647844106,-43.93261605873704L-72.4760398734361,258.30526505596936L-49.60320424288511,49.64986520353705Z" fill="#f1fcff" stroke="#f1fcff" fill-opacity="1" stroke-opacity="1"/><path d="M-108.56087647844106,-43.93261605873704L-49.60320424288511,49.64986520353705L64.94710471015424,-69.43283779546618Z" fill="#f9fefe" stroke="#f9fefe" fill-opacity="1" stroke-opacity="1"/><path d="M-108.56087647844106,-43.93261605873704L64.94710471015424,-69.43283779546618L251.07983963098377,-121.6613685246557Z" fill="#f0f7fb" stroke="#f0f7fb" fill-opacity="1" stroke-opacity="1"/><path d="M64.94710471015424,-69.43283779546618L-49.60320424288511,49.64986520353705L58.07469426654279,82.57446102797985Z" fill="#f1fafc" stroke="#f1fafc" fill-opacity="1" stroke-opacity="1"/><path d="M64.94710471015424,-69.43283779546618L58.07469426654279,82.57446102797985L214.49942160397768,104.47824457660317Z" fill="#e8f4f9" stroke="#e8f4f9" fill-opacity="1" stroke-opacity="1"/><path d="M64.94710471015424,-69.43283779546618L214.49942160397768,104.47824457660317L251.07983963098377,-121.6613685246557Z" fill="#e7f1f7" stroke="#e7f1f7" fill-opacity="1" stroke-opacity="1"/><path d="M251.07983963098377,-121.6613685246557L214.49942160397768,104.47824457660317L417.93211475014687,68.06871388107538Z" fill="#dbe9f3" stroke="#dbe9f3" fill-opacity="1" stroke-opacity="1"/><path d="M251.07983963098377,-121.6613685246557L417.93211475014687,68.06871388107538L352.8726053889841,-124.41955837421119Z" fill="#d9e6f1" stroke="#d9e6f1" fill-opacity="1" stroke-opacity="1"/><path d="M352.8726053889841,-124.41955837421119L417.93211475014687,68.06871388107538L478.07811233215034,-86.06624156236649Z" fill="#d5e0ee" stroke="#d5e0ee" fill-opacity="1" stroke-opacity="1"/><path d="M352.8726053889841,-124.41955837421119L478.07811233215034,-86.06624156236649L644.9174284003675,-65.3699932154268Z" fill="#d1daeb" stroke="#d1daeb" fill-opacity="1" stroke-opacity="1"/><path d="M352.8726053889841,-124.41955837421119L644.9174284003675,-65.3699932154268L1230.8930394705385,-119.17581448797137Z" fill="#c5c3df" stroke="#c5c3df" fill-opacity="1" stroke-opacity="1"/><path d="M352.8726053889841,-124.41955837421119L1230.8930394705385,-119.17581448797137L1592.8152911830693,-124.1749201901257Z" fill="#c49ccc" stroke="#c49ccc" fill-opacity="1" stroke-opacity="1"/><path d="M478.07811233215034,-86.06624156236649L417.93211475014687,68.06871388107538L481.23604343272746,64.43561329506338Z" fill="#d1dcec" stroke="#d1dcec" fill-opacity="1" stroke-opacity="1"/><path d="M478.07811233215034,-86.06624156236649L481.23604343272746,64.43561329506338L644.9174284003675,-65.3699932154268Z" fill="#ced7e9" stroke="#ced7e9" fill-opacity="1" stroke-opacity="1"/><path d="M644.9174284003675,-65.3699932154268L481.23604343272746,64.43561329506338L719.1037398763001,70.57552593760192Z" fill="#c7d0e6" stroke="#c7d0e6" fill-opacity="1" stroke-opacity="1"/><path d="M644.9174284003675,-65.3699932154268L719.1037398763001,70.57552593760192L796.286627673544,-49.099603784270585Z" fill="#c6c6e1" stroke="#c6c6e1" fill-opacity="1" stroke-opacity="1"/><path d="M644.9174284003675,-65.3699932154268L796.286627673544,-49.099603784270585L1230.8930394705385,-119.17581448797137Z" fill="#c5b1d6" stroke="#c5b1d6" fill-opacity="1" stroke-opacity="1"/><path d="M796.286627673544,-49.099603784270585L719.1037398763001,70.57552593760192L792.3216136638075,30.663412786088884Z" fill="#c3c0de" stroke="#c3c0de" fill-opacity="1" stroke-opacity="1"/><path d="M796.286627673544,-49.099603784270585L792.3216136638075,30.663412786088884L956.5417484845966,-47.05131177324802Z" fill="#c5b6d9" stroke="#c5b6d9" fill-opacity="1" stroke-opacity="1"/><path d="M796.286627673544,-49.099603784270585L956.5417484845966,-47.05131177324802L1230.8930394705385,-119.17581448797137Z" fill="#c4a4d0" stroke="#c4a4d0" fill-opacity="1" stroke-opacity="1"/><path d="M956.5417484845966,-47.05131177324802L792.3216136638075,30.663412786088884L1001.3614386785775,72.66671205870807Z" fill="#c2add5" stroke="#c2add5" fill-opacity="1" stroke-opacity="1"/><path d="M956.5417484845966,-47.05131177324802L1001.3614386785775,72.66671205870807L1086.2425684696063,47.823388944379985Z" fill="#c1a0cf" stroke="#c1a0cf" fill-opacity="1" stroke-opacity="1"/><path d="M956.5417484845966,-47.05131177324802L1086.2425684696063,47.823388944379985L1127.5631617521867,-38.742020167410374Z" fill="#c49ccc" stroke="#c49ccc" fill-opacity="1" stroke-opacity="1"/><path d="M956.5417484845966,-47.05131177324802L1127.5631617521867,-38.742020167410374L1230.8930394705385,-119.17581448797137Z" fill="#c396c9" stroke="#c396c9" fill-opacity="1" stroke-opacity="1"/><path d="M1127.5631617521867,-38.742020167410374L1086.2425684696063,47.823388944379985L1264.971177186817,110.44566952623427Z" fill="#bd8ec6" stroke="#bd8ec6" fill-opacity="1" stroke-opacity="1"/><path d="M1127.5631617521867,-38.742020167410374L1264.971177186817,110.44566952623427L1230.8930394705385,-119.17581448797137Z" fill="#c389c3" stroke="#c389c3" fill-opacity="1" stroke-opacity="1"/><path d="M1230.8930394705385,-119.17581448797137L1264.971177186817,110.44566952623427L1375.8270041784272,-39.004608360119164Z" fill="#c280be" stroke="#c280be" fill-opacity="1" stroke-opacity="1"/><path d="M1230.8930394705385,-119.17581448797137L1375.8270041784272,-39.004608360119164L1592.8152911830693,-124.1749201901257Z" fill="#c280b8" stroke="#c280b8" fill-opacity="1" stroke-opacity="1"/><path d="M1375.8270041784272,-39.004608360119164L1264.971177186817,110.44566952623427L1416.0715958336368,31.106494856067002Z" fill="#bd7fbb" stroke="#bd7fbb" fill-opacity="1" stroke-opacity="1"/><path d="M1375.8270041784272,-39.004608360119164L1416.0715958336368,31.106494856067002L1592.8152911830693,-124.1749201901257Z" fill="#c180b4" stroke="#c180b4" fill-opacity="1" stroke-opacity="1"/><path d="M1592.8152911830693,-124.1749201901257L1416.0715958336368,31.106494856067002L1593.875436251983,81.80775758810341Z" fill="#c180b0" stroke="#c180b0" fill-opacity="1" stroke-opacity="1"/><path d="M1592.8152911830693,-124.1749201901257L1593.875436251983,81.80775758810341L1623.9672078285366,361.42994889523834Z" fill="#b27cab" stroke="#b27cab" fill-opacity="1" stroke-opacity="1"/><path d="M-49.60320424288511,49.64986520353705L-72.4760398734361,258.30526505596936L50.58551949914545,202.18079085461795Z" fill="#e2f6fe" stroke="#e2f6fe" fill-opacity="1" stroke-opacity="1"/><path d="M-49.60320424288511,49.64986520353705L50.58551949914545,202.18079085461795L58.07469426654279,82.57446102797985Z" fill="#e6f7fd" stroke="#e6f7fd" fill-opacity="1" stroke-opacity="1"/><path d="M58.07469426654279,82.57446102797985L50.58551949914545,202.18079085461795L214.49942160397768,104.47824457660317Z" fill="#dcf1f9" stroke="#dcf1f9" fill-opacity="1" stroke-opacity="1"/><path d="M214.49942160397768,104.47824457660317L50.58551949914545,202.18079085461795L251.062941737473,263.71858483180404Z" fill="#cee5f5" stroke="#cee5f5" fill-opacity="1" stroke-opacity="1"/><path d="M214.49942160397768,104.47824457660317L251.062941737473,263.71858483180404L383.8505983352661,267.57171358913183Z" fill="#c1daf0" stroke="#c1daf0" fill-opacity="1" stroke-opacity="1"/><path d="M214.49942160397768,104.47824457660317L383.8505983352661,267.57171358913183L417.93211475014687,68.06871388107538Z" fill="#c6e2f1" stroke="#c6e2f1" fill-opacity="1" stroke-opacity="1"/><path d="M417.93211475014687,68.06871388107538L383.8505983352661,267.57171358913183L532.0747344288975,213.54882901068777Z" fill="#bbd4eb" stroke="#bbd4eb" fill-opacity="1" stroke-opacity="1"/><path d="M417.93211475014687,68.06871388107538L532.0747344288975,213.54882901068777L481.23604343272746,64.43561329506338Z" fill="#c2d8eb" stroke="#c2d8eb" fill-opacity="1" stroke-opacity="1"/><path d="M481.23604343272746,64.43561329506338L532.0747344288975,213.54882901068777L719.1037398763001,70.57552593760192Z" fill="#bcd0e7" stroke="#bcd0e7" fill-opacity="1" stroke-opacity="1"/><path d="M719.1037398763001,70.57552593760192L532.0747344288975,213.54882901068777L633.6129445582628,253.93071700818837Z" fill="#b1c6e4" stroke="#b1c6e4" fill-opacity="1" stroke-opacity="1"/><path d="M719.1037398763001,70.57552593760192L633.6129445582628,253.93071700818837L777.4247667752206,202.11908069904894Z" fill="#aebfe0" stroke="#aebfe0" fill-opacity="1" stroke-opacity="1"/><path d="M719.1037398763001,70.57552593760192L777.4247667752206,202.11908069904894L792.3216136638075,30.663412786088884Z" fill="#b8bede" stroke="#b8bede" fill-opacity="1" stroke-opacity="1"/><path d="M792.3216136638075,30.663412786088884L777.4247667752206,202.11908069904894L951.4272575266659,177.59134804364294Z" fill="#b3b3d9" stroke="#b3b3d9" fill-opacity="1" stroke-opacity="1"/><path d="M792.3216136638075,30.663412786088884L951.4272575266659,177.59134804364294L1001.3614386785775,72.66671205870807Z" fill="#b8abd5" stroke="#b8abd5" fill-opacity="1" stroke-opacity="1"/><path d="M1001.3614386785775,72.66671205870807L951.4272575266659,177.59134804364294L1126.6594840446487,233.8759706588462Z" fill="#ae9bce" stroke="#ae9bce" fill-opacity="1" stroke-opacity="1"/><path d="M1001.3614386785775,72.66671205870807L1126.6594840446487,233.8759706588462L1086.2425684696063,47.823388944379985Z" fill="#b497cb" stroke="#b497cb" fill-opacity="1" stroke-opacity="1"/><path d="M1086.2425684696063,47.823388944379985L1126.6594840446487,233.8759706588462L1264.971177186817,110.44566952623427Z" fill="#b18bc6" stroke="#b18bc6" fill-opacity="1" stroke-opacity="1"/><path d="M1264.971177186817,110.44566952623427L1126.6594840446487,233.8759706588462L1253.356203972362,229.78098993189633Z" fill="#a97dc1" stroke="#a97dc1" fill-opacity="1" stroke-opacity="1"/><path d="M1264.971177186817,110.44566952623427L1253.356203972362,229.78098993189633L1388.4196828585118,187.97146554570645Z" fill="#ab77bd" stroke="#ab77bd" fill-opacity="1" stroke-opacity="1"/><path d="M1264.971177186817,110.44566952623427L1388.4196828585118,187.97146554570645L1416.0715958336368,31.106494856067002Z" fill="#b37cba" stroke="#b37cba" fill-opacity="1" stroke-opacity="1"/><path d="M1416.0715958336368,31.106494856067002L1388.4196828585118,187.97146554570645L1593.875436251983,81.80775758810341Z" fill="#b47db4" stroke="#b47db4" fill-opacity="1" stroke-opacity="1"/><path d="M1593.875436251983,81.80775758810341L1388.4196828585118,187.97146554570645L1529.0168149396777,265.0548335397616Z" fill="#a977b0" stroke="#a977b0" fill-opacity="1" stroke-opacity="1"/><path d="M1593.875436251983,81.80775758810341L1529.0168149396777,265.0548335397616L1623.9672078285366,361.42994889523834Z" fill="#a06ba8" stroke="#a06ba8" fill-opacity="1" stroke-opacity="1"/><path d="M-72.4760398734361,258.30526505596936L-94.5210333680734,652.3804906988516L-61.26850692089647,413.69360173121095Z" fill="#cfb1e3" stroke="#cfb1e3" fill-opacity="1" stroke-opacity="1"/><path d="M-72.4760398734361,258.30526505596936L-61.26850692089647,413.69360173121095L34.29468907415867,381.3395920442417Z" fill="#cdcdef" stroke="#cdcdef" fill-opacity="1" stroke-opacity="1"/><path d="M-72.4760398734361,258.30526505596936L34.29468907415867,381.3395920442417L50.58551949914545,202.18079085461795Z" fill="#cfddf6" stroke="#cfddf6" fill-opacity="1" stroke-opacity="1"/><path d="M50.58551949914545,202.18079085461795L34.29468907415867,381.3395920442417L251.062941737473,263.71858483180404Z" fill="#c6d6f2" stroke="#c6d6f2" fill-opacity="1" stroke-opacity="1"/><path d="M251.062941737473,263.71858483180404L34.29468907415867,381.3395920442417L251.0202013887465,341.14161296747625Z" fill="#bbc6eb" stroke="#bbc6eb" fill-opacity="1" stroke-opacity="1"/><path d="M251.062941737473,263.71858483180404L251.0202013887465,341.14161296747625L383.8505983352661,267.57171358913183Z" fill="#b5c9eb" stroke="#b5c9eb" fill-opacity="1" stroke-opacity="1"/><path d="M383.8505983352661,267.57171358913183L251.0202013887465,341.14161296747625L386.06765412259847,410.4414401575923Z" fill="#adb9e4" stroke="#adb9e4" fill-opacity="1" stroke-opacity="1"/><path d="M383.8505983352661,267.57171358913183L386.06765412259847,410.4414401575923L538.3062763372436,333.2225094316527Z" fill="#a7b2e1" stroke="#a7b2e1" fill-opacity="1" stroke-opacity="1"/><path d="M383.8505983352661,267.57171358913183L538.3062763372436,333.2225094316527L532.0747344288975,213.54882901068777Z" fill="#acbee4" stroke="#acbee4" fill-opacity="1" stroke-opacity="1"/><path d="M532.0747344288975,213.54882901068777L538.3062763372436,333.2225094316527L633.6129445582628,253.93071700818837Z" fill="#a8b9e1" stroke="#a8b9e1" fill-opacity="1" stroke-opacity="1"/><path d="M633.6129445582628,253.93071700818837L538.3062763372436,333.2225094316527L672.9435895802453,391.8378457194194Z" fill="#9ea7db" stroke="#9ea7db" fill-opacity="1" stroke-opacity="1"/><path d="M633.6129445582628,253.93071700818837L672.9435895802453,391.8378457194194L792.60699886363,350.5974711617455Z" fill="#9a9ed6" stroke="#9a9ed6" fill-opacity="1" stroke-opacity="1"/><path d="M633.6129445582628,253.93071700818837L792.60699886363,350.5974711617455L777.4247667752206,202.11908069904894Z" fill="#a0a8d9" stroke="#a0a8d9" fill-opacity="1" stroke-opacity="1"/><path d="M777.4247667752206,202.11908069904894L792.60699886363,350.5974711617455L956.9215722614899,331.63703214377165Z" fill="#9c95d1" stroke="#9c95d1" fill-opacity="1" stroke-opacity="1"/><path d="M777.4247667752206,202.11908069904894L956.9215722614899,331.63703214377165L951.4272575266659,177.59134804364294Z" fill="#a49bd2" stroke="#a49bd2" fill-opacity="1" stroke-opacity="1"/><path d="M951.4272575266659,177.59134804364294L956.9215722614899,331.63703214377165L1126.6594840446487,233.8759706588462Z" fill="#a28aca" stroke="#a28aca" fill-opacity="1" stroke-opacity="1"/><path d="M1126.6594840446487,233.8759706588462L956.9215722614899,331.63703214377165L1144.3944306811318,361.9665239471942Z" fill="#9875c2" stroke="#9875c2" fill-opacity="1" stroke-opacity="1"/><path d="M1126.6594840446487,233.8759706588462L1144.3944306811318,361.9665239471942L1253.356203972362,229.78098993189633Z" fill="#9d70be" stroke="#9d70be" fill-opacity="1" stroke-opacity="1"/><path d="M1253.356203972362,229.78098993189633L1144.3944306811318,361.9665239471942L1323.0138130718842,332.441243971698Z" fill="#9861b8" stroke="#9861b8" fill-opacity="1" stroke-opacity="1"/><path d="M1253.356203972362,229.78098993189633L1323.0138130718842,332.441243971698L1388.4196828585118,187.97146554570645Z" fill="#a068b7" stroke="#a068b7" fill-opacity="1" stroke-opacity="1"/><path d="M1388.4196828585118,187.97146554570645L1323.0138130718842,332.441243971698L1456.840069964528,370.92553365509957Z" fill="#995eb0" stroke="#995eb0" fill-opacity="1" stroke-opacity="1"/><path d="M1388.4196828585118,187.97146554570645L1456.840069964528,370.92553365509957L1529.0168149396777,265.0548335397616Z" fill="#9b63ad" stroke="#9b63ad" fill-opacity="1" stroke-opacity="1"/><path d="M1529.0168149396777,265.0548335397616L1456.840069964528,370.92553365509957L1623.9672078285366,361.42994889523834Z" fill="#9555a4" stroke="#9555a4" fill-opacity="1" stroke-opacity="1"/><path d="M-61.26850692089647,413.69360173121095L-94.5210333680734,652.3804906988516L-33.339219563640654,480.0396759528667Z" fill="#cd99d7" stroke="#cd99d7" fill-opacity="1" stroke-opacity="1"/><path d="M-61.26850692089647,413.69360173121095L-33.339219563640654,480.0396759528667L34.29468907415867,381.3395920442417Z" fill="#cab4e4" stroke="#cab4e4" fill-opacity="1" stroke-opacity="1"/><path d="M34.29468907415867,381.3395920442417L-33.339219563640654,480.0396759528667L118.19426696747541,493.08381103910506Z" fill="#c5a8dd" stroke="#c5a8dd" fill-opacity="1" stroke-opacity="1"/><path d="M34.29468907415867,381.3395920442417L118.19426696747541,493.08381103910506L251.0202013887465,341.14161296747625Z" fill="#bdb1e2" stroke="#bdb1e2" fill-opacity="1" stroke-opacity="1"/><path d="M251.0202013887465,341.14161296747625L118.19426696747541,493.08381103910506L235.13297366444021,569.0797148505226Z" fill="#b799d5" stroke="#b799d5" fill-opacity="1" stroke-opacity="1"/><path d="M251.0202013887465,341.14161296747625L235.13297366444021,569.0797148505226L358.11017635278404,521.1103279842064Z" fill="#b091d1" stroke="#b091d1" fill-opacity="1" stroke-opacity="1"/><path d="M251.0202013887465,341.14161296747625L358.11017635278404,521.1103279842064L386.06765412259847,410.4414401575923Z" fill="#ad9ed8" stroke="#ad9ed8" fill-opacity="1" stroke-opacity="1"/><path d="M386.06765412259847,410.4414401575923L358.11017635278404,521.1103279842064L534.1499527683482,520.6379624083638Z" fill="#a683ca" stroke="#a683ca" fill-opacity="1" stroke-opacity="1"/><path d="M386.06765412259847,410.4414401575923L534.1499527683482,520.6379624083638L538.3062763372436,333.2225094316527Z" fill="#a393d2" stroke="#a393d2" fill-opacity="1" stroke-opacity="1"/><path d="M538.3062763372436,333.2225094316527L534.1499527683482,520.6379624083638L672.9435895802453,391.8378457194194Z" fill="#9e8dcf" stroke="#9e8dcf" fill-opacity="1" stroke-opacity="1"/><path d="M672.9435895802453,391.8378457194194L534.1499527683482,520.6379624083638L675.7534317439422,483.74077123589814Z" fill="#9a79c5" stroke="#9a79c5" fill-opacity="1" stroke-opacity="1"/><path d="M672.9435895802453,391.8378457194194L675.7534317439422,483.74077123589814L792.60699886363,350.5974711617455Z" fill="#9883c9" stroke="#9883c9" fill-opacity="1" stroke-opacity="1"/><path d="M792.60699886363,350.5974711617455L675.7534317439422,483.74077123589814L799.4545008987188,520.544247305952Z" fill="#9770c0" stroke="#9770c0" fill-opacity="1" stroke-opacity="1"/><path d="M792.60699886363,350.5974711617455L799.4545008987188,520.544247305952L937.3716759029776,530.1968075567856Z" fill="#9660b9" stroke="#9660b9" fill-opacity="1" stroke-opacity="1"/><path d="M792.60699886363,350.5974711617455L937.3716759029776,530.1968075567856L956.9215722614899,331.63703214377165Z" fill="#976ebf" stroke="#976ebf" fill-opacity="1" stroke-opacity="1"/><path d="M956.9215722614899,331.63703214377165L937.3716759029776,530.1968075567856L1144.3944306811318,361.9665239471942Z" fill="#965eb7" stroke="#965eb7" fill-opacity="1" stroke-opacity="1"/><path d="M1144.3944306811318,361.9665239471942L937.3716759029776,530.1968075567856L1167.971725598909,536.2400233047083Z" fill="#9540a9" stroke="#9540a9" fill-opacity="1" stroke-opacity="1"/><path d="M1144.3944306811318,361.9665239471942L1167.971725598909,536.2400233047083L1282.5719056883827,494.47058390360326Z" fill="#9435a3" stroke="#9435a3" fill-opacity="1" stroke-opacity="1"/><path d="M1144.3944306811318,361.9665239471942L1282.5719056883827,494.47058390360326L1323.0138130718842,332.441243971698Z" fill="#9545ab" stroke="#9545ab" fill-opacity="1" stroke-opacity="1"/><path d="M1323.0138130718842,332.441243971698L1282.5719056883827,494.47058390360326L1456.840069964528,370.92553365509957Z" fill="#943fa4" stroke="#943fa4" fill-opacity="1" stroke-opacity="1"/><path d="M1456.840069964528,370.92553365509957L1282.5719056883827,494.47058390360326L1470.2892553294078,479.62214364670217Z" fill="#942f9a" stroke="#942f9a" fill-opacity="1" stroke-opacity="1"/><path d="M1456.840069964528,370.92553365509957L1470.2892553294078,479.62214364670217L1623.9672078285366,361.42994889523834Z" fill="#933e9a" stroke="#933e9a" fill-opacity="1" stroke-opacity="1"/><path d="M1623.9672078285366,361.42994889523834L1470.2892553294078,479.62214364670217L1607.3142298031598,491.5616644313559Z" fill="#933191" stroke="#933191" fill-opacity="1" stroke-opacity="1"/><path d="M1623.9672078285366,361.42994889523834L1607.3142298031598,491.5616644313559L1624.8468129197136,866.4327188394964Z" fill="#90077a" stroke="#90077a" fill-opacity="1" stroke-opacity="1"/><path d="M-33.339219563640654,480.0396759528667L-94.5210333680734,652.3804906988516L55.018898379057646,662.7994454931468Z" fill="#c87ec9" stroke="#c87ec9" fill-opacity="1" stroke-opacity="1"/><path d="M-33.339219563640654,480.0396759528667L55.018898379057646,662.7994454931468L118.19426696747541,493.08381103910506Z" fill="#c389cf" stroke="#c389cf" fill-opacity="1" stroke-opacity="1"/><path d="M118.19426696747541,493.08381103910506L55.018898379057646,662.7994454931468L235.13297366444021,569.0797148505226Z" fill="#bb7ac7" stroke="#bb7ac7" fill-opacity="1" stroke-opacity="1"/><path d="M235.13297366444021,569.0797148505226L55.018898379057646,662.7994454931468L185.8179661910981,693.7691602855921Z" fill="#b872bc" stroke="#b872bc" fill-opacity="1" stroke-opacity="1"/><path d="M235.13297366444021,569.0797148505226L185.8179661910981,693.7691602855921L331.3550514401868,646.4264074340463Z" fill="#b06cb9" stroke="#b06cb9" fill-opacity="1" stroke-opacity="1"/><path d="M235.13297366444021,569.0797148505226L331.3550514401868,646.4264074340463L358.11017635278404,521.1103279842064Z" fill="#ac6ec0" stroke="#ac6ec0" fill-opacity="1" stroke-opacity="1"/><path d="M358.11017635278404,521.1103279842064L331.3550514401868,646.4264074340463L501.2253829976544,645.5306678777561Z" fill="#a662b9" stroke="#a662b9" fill-opacity="1" stroke-opacity="1"/><path d="M358.11017635278404,521.1103279842064L501.2253829976544,645.5306678777561L534.1499527683482,520.6379624083638Z" fill="#a267bd" stroke="#a267bd" fill-opacity="1" stroke-opacity="1"/><path d="M534.1499527683482,520.6379624083638L501.2253829976544,645.5306678777561L661.9235501391813,628.6821143934503Z" fill="#9c55b3" stroke="#9c55b3" fill-opacity="1" stroke-opacity="1"/><path d="M534.1499527683482,520.6379624083638L661.9235501391813,628.6821143934503L675.7534317439422,483.74077123589814Z" fill="#9a61b9" stroke="#9a61b9" fill-opacity="1" stroke-opacity="1"/><path d="M675.7534317439422,483.74077123589814L661.9235501391813,628.6821143934503L799.4545008987188,520.544247305952Z" fill="#9658b4" stroke="#9658b4" fill-opacity="1" stroke-opacity="1"/><path d="M799.4545008987188,520.544247305952L661.9235501391813,628.6821143934503L865.4919230844826,663.0005525890738Z" fill="#9540a7" stroke="#9540a7" fill-opacity="1" stroke-opacity="1"/><path d="M799.4545008987188,520.544247305952L865.4919230844826,663.0005525890738L937.3716759029776,530.1968075567856Z" fill="#953ca7" stroke="#953ca7" fill-opacity="1" stroke-opacity="1"/><path d="M937.3716759029776,530.1968075567856L865.4919230844826,663.0005525890738L933.1535247620195,711.1805229447782Z" fill="#932f9b" stroke="#932f9b" fill-opacity="1" stroke-opacity="1"/><path d="M937.3716759029776,530.1968075567856L933.1535247620195,711.1805229447782L1146.5089690405875,629.1315623559058Z" fill="#932396" stroke="#932396" fill-opacity="1" stroke-opacity="1"/><path d="M937.3716759029776,530.1968075567856L1146.5089690405875,629.1315623559058L1167.971725598909,536.2400233047083Z" fill="#93239b" stroke="#93239b" fill-opacity="1" stroke-opacity="1"/><path d="M1167.971725598909,536.2400233047083L1146.5089690405875,629.1315623559058L1322.5565957836807,658.5703079821542Z" fill="#92098c" stroke="#92098c" fill-opacity="1" stroke-opacity="1"/><path d="M1167.971725598909,536.2400233047083L1322.5565957836807,658.5703079821542L1282.5719056883827,494.47058390360326Z" fill="#920e91" stroke="#920e91" fill-opacity="1" stroke-opacity="1"/><path d="M1282.5719056883827,494.47058390360326L1322.5565957836807,658.5703079821542L1414.6760424599051,632.1417754283175Z" fill="#910087" stroke="#910087" fill-opacity="1" stroke-opacity="1"/><path d="M1282.5719056883827,494.47058390360326L1414.6760424599051,632.1417754283175L1470.2892553294078,479.62214364670217Z" fill="#92138d" stroke="#92138d" fill-opacity="1" stroke-opacity="1"/><path d="M1470.2892553294078,479.62214364670217L1414.6760424599051,632.1417754283175L1525.6264543626457,658.770673442632Z" fill="#910280" stroke="#910280" fill-opacity="1" stroke-opacity="1"/><path d="M1470.2892553294078,479.62214364670217L1525.6264543626457,658.770673442632L1607.3142298031598,491.5616644313559Z" fill="#911183" stroke="#911183" fill-opacity="1" stroke-opacity="1"/><path d="M1607.3142298031598,491.5616644313559L1525.6264543626457,658.770673442632L1624.8468129197136,866.4327188394964Z" fill="#8f006c" stroke="#8f006c" fill-opacity="1" stroke-opacity="1"/><path d="M-94.5210333680734,652.3804906988516L-59.75775225088,851.5617843484506L55.018898379057646,662.7994454931468Z" fill="#c77eb6" stroke="#c77eb6" fill-opacity="1" stroke-opacity="1"/><path d="M55.018898379057646,662.7994454931468L-59.75775225088,851.5617843484506L41.87054669018835,863.9988591196015Z" fill="#c27baa" stroke="#c27baa" fill-opacity="1" stroke-opacity="1"/><path d="M55.018898379057646,662.7994454931468L41.87054669018835,863.9988591196015L185.8179661910981,693.7691602855921Z" fill="#bc76af" stroke="#bc76af" fill-opacity="1" stroke-opacity="1"/><path d="M185.8179661910981,693.7691602855921L41.87054669018835,863.9988591196015L247.70609147381037,839.7073116386309Z" fill="#b572a4" stroke="#b572a4" fill-opacity="1" stroke-opacity="1"/><path d="M185.8179661910981,693.7691602855921L247.70609147381037,839.7073116386309L325.70073157548904,791.0577866481617Z" fill="#ae6ca4" stroke="#ae6ca4" fill-opacity="1" stroke-opacity="1"/><path d="M185.8179661910981,693.7691602855921L325.70073157548904,791.0577866481617L331.3550514401868,646.4264074340463Z" fill="#ac6bad" stroke="#ac6bad" fill-opacity="1" stroke-opacity="1"/><path d="M331.3550514401868,646.4264074340463L325.70073157548904,791.0577866481617L481.5364137524739,799.7342693153769Z" fill="#a464a4" stroke="#a464a4" fill-opacity="1" stroke-opacity="1"/><path d="M331.3550514401868,646.4264074340463L481.5364137524739,799.7342693153769L501.2253829976544,645.5306678777561Z" fill="#a25fa9" stroke="#a25fa9" fill-opacity="1" stroke-opacity="1"/><path d="M501.2253829976544,645.5306678777561L481.5364137524739,799.7342693153769L672.405013628304,803.9592006010935Z" fill="#9a569c" stroke="#9a569c" fill-opacity="1" stroke-opacity="1"/><path d="M501.2253829976544,645.5306678777561L672.405013628304,803.9592006010935L661.9235501391813,628.6821143934503Z" fill="#9851a2" stroke="#9851a2" fill-opacity="1" stroke-opacity="1"/><path d="M661.9235501391813,628.6821143934503L672.405013628304,803.9592006010935L865.4919230844826,663.0005525890738Z" fill="#93459b" stroke="#93459b" fill-opacity="1" stroke-opacity="1"/><path d="M865.4919230844826,663.0005525890738L672.405013628304,803.9592006010935L840.1253721676767,803.2766048097983Z" fill="#923e8f" stroke="#923e8f" fill-opacity="1" stroke-opacity="1"/><path d="M865.4919230844826,663.0005525890738L840.1253721676767,803.2766048097983L933.1535247620195,711.1805229447782Z" fill="#92338e" stroke="#92338e" fill-opacity="1" stroke-opacity="1"/><path d="M933.1535247620195,711.1805229447782L840.1253721676767,803.2766048097983L931.6394532099366,799.1425575455651Z" fill="#913086" stroke="#913086" fill-opacity="1" stroke-opacity="1"/><path d="M933.1535247620195,711.1805229447782L931.6394532099366,799.1425575455651L1131.9504581857473,835.996477608569Z" fill="#90247e" stroke="#90247e" fill-opacity="1" stroke-opacity="1"/><path d="M933.1535247620195,711.1805229447782L1131.9504581857473,835.996477608569L1146.5089690405875,629.1315623559058Z" fill="#911b83" stroke="#911b83" fill-opacity="1" stroke-opacity="1"/><path d="M1146.5089690405875,629.1315623559058L1131.9504581857473,835.996477608569L1311.3475896650925,800.4231996834278Z" fill="#900b77" stroke="#900b77" fill-opacity="1" stroke-opacity="1"/><path d="M1146.5089690405875,629.1315623559058L1311.3475896650925,800.4231996834278L1322.5565957836807,658.5703079821542Z" fill="#90037c" stroke="#90037c" fill-opacity="1" stroke-opacity="1"/><path d="M1322.5565957836807,658.5703079821542L1311.3475896650925,800.4231996834278L1447.4975308869034,802.0949017256498Z" fill="#8f006d" stroke="#8f006d" fill-opacity="1" stroke-opacity="1"/><path d="M1322.5565957836807,658.5703079821542L1447.4975308869034,802.0949017256498L1414.6760424599051,632.1417754283175Z" fill="#900074" stroke="#900074" fill-opacity="1" stroke-opacity="1"/><path d="M1414.6760424599051,632.1417754283175L1447.4975308869034,802.0949017256498L1525.6264543626457,658.770673442632Z" fill="#8f006f" stroke="#8f006f" fill-opacity="1" stroke-opacity="1"/><path d="M1525.6264543626457,658.770673442632L1447.4975308869034,802.0949017256498L1624.8468129197136,866.4327188394964Z" fill="#8e005f" stroke="#8e005f" fill-opacity="1" stroke-opacity="1"/><path d="M41.87054669018835,863.9988591196015L1624.8468129197136,866.4327188394964L1131.9504581857473,835.996477608569Z" fill="#902c77" stroke="#902c77" fill-opacity="1" stroke-opacity="1"/><path d="M41.87054669018835,863.9988591196015L1131.9504581857473,835.996477608569L247.70609147381037,839.7073116386309Z" fill="#9d5c90" stroke="#9d5c90" fill-opacity="1" stroke-opacity="1"/><path d="M247.70609147381037,839.7073116386309L1131.9504581857473,835.996477608569L672.405013628304,803.9592006010935Z" fill="#924b8a" stroke="#924b8a" fill-opacity="1" stroke-opacity="1"/><path d="M247.70609147381037,839.7073116386309L672.405013628304,803.9592006010935L481.5364137524739,799.7342693153769Z" fill="#9e5d95" stroke="#9e5d95" fill-opacity="1" stroke-opacity="1"/><path d="M247.70609147381037,839.7073116386309L481.5364137524739,799.7342693153769L325.70073157548904,791.0577866481617Z" fill="#a5669b" stroke="#a5669b" fill-opacity="1" stroke-opacity="1"/><path d="M672.405013628304,803.9592006010935L1131.9504581857473,835.996477608569L840.1253721676767,803.2766048097983Z" fill="#913380" stroke="#913380" fill-opacity="1" stroke-opacity="1"/><path d="M840.1253721676767,803.2766048097983L1131.9504581857473,835.996477608569L931.6394532099366,799.1425575455651Z" fill="#90287c" stroke="#90287c" fill-opacity="1" stroke-opacity="1"/><path d="M1131.9504581857473,835.996477608569L1624.8468129197136,866.4327188394964L1311.3475896650925,800.4231996834278Z" fill="#8e0061" stroke="#8e0061" fill-opacity="1" stroke-opacity="1"/><path d="M1311.3475896650925,800.4231996834278L1624.8468129197136,866.4327188394964L1447.4975308869034,802.0949017256498Z" fill="#8d005d" stroke="#8d005d" fill-opacity="1" stroke-opacity="1"/></g></svg>