<svg width="1366" height="634" xmlns="http://www.w3.org/2000/svg"><g><path d="M-96.03562157135457,-51.43600807059556L-98.4672880731523,221.24724029563367L-31.111203762702644,33.4170016925782Z" fill="#f9ffd6" stroke="#f9ffd6" fill-opacity="1" stroke-opacity="1"/><path d="M-96.03562157135457,-51.43600807059556L-31.111203762702644,33.4170016925782L42.868049535900354,-101.75739207770675Z" fill="#ffffe8" stroke="#ffffe8" fill-opacity="1" stroke-opacity="1"/><path d="M42.868049535900354,-101.75739207770675L-31.111203762702644,33.4170016925782L50.416368804872036,36.35573892388493Z" fill="#fdfee0" stroke="#fdfee0" fill-opacity="1" stroke-opacity="1"/><path d="M42.868049535900354,-101.75739207770675L50.416368804872036,36.35573892388493L184.47570148855448,-96.78923522587866Z" fill="#f5fbdd" stroke="#f5fbdd" fill-opacity="1" stroke-opacity="1"/><path d="M42.868049535900354,-101.75739207770675L184.47570148855448,-96.78923522587866L417.1811499632895,-114.35943169053644Z" fill="#e7f5d2" stroke="#e7f5d2" fill-opacity="1" stroke-opacity="1"/><path d="M184.47570148855448,-96.78923522587866L50.416368804872036,36.35573892388493L182.79837877489626,107.15630906634033Z" fill="#eef9cf" stroke="#eef9cf" fill-opacity="1" stroke-opacity="1"/><path d="M184.47570148855448,-96.78923522587866L182.79837877489626,107.15630906634033L342.67877205275,65.34076128154993Z" fill="#e2f4c4" stroke="#e2f4c4" fill-opacity="1" stroke-opacity="1"/><path d="M184.47570148855448,-96.78923522587866L342.67877205275,65.34076128154993L417.1811499632895,-114.35943169053644Z" fill="#dbf0ca" stroke="#dbf0ca" fill-opacity="1" stroke-opacity="1"/><path d="M417.1811499632895,-114.35943169053644L342.67877205275,65.34076128154993L524.574790080078,-51.218178449198604Z" fill="#cceac3" stroke="#cceac3" fill-opacity="1" stroke-opacity="1"/><path d="M417.1811499632895,-114.35943169053644L524.574790080078,-51.218178449198604L635.7956598745659,-36.552023980766535Z" fill="#bfe4bd" stroke="#bfe4bd" fill-opacity="1" stroke-opacity="1"/><path d="M417.1811499632895,-114.35943169053644L635.7956598745659,-36.552023980766535L780.4712811950594,-41.98615506757051Z" fill="#b3dfb8" stroke="#b3dfb8" fill-opacity="1" stroke-opacity="1"/><path d="M417.1811499632895,-114.35943169053644L780.4712811950594,-41.98615506757051L1141.9294349383563,-124.77870879229158Z" fill="#9dd4ac" stroke="#9dd4ac" fill-opacity="1" stroke-opacity="1"/><path d="M524.574790080078,-51.218178449198604L342.67877205275,65.34076128154993L506.5487357787788,104.56238142214715Z" fill="#c4e8b2" stroke="#c4e8b2" fill-opacity="1" stroke-opacity="1"/><path d="M524.574790080078,-51.218178449198604L506.5487357787788,104.56238142214715L635.7956598745659,-36.552023980766535Z" fill="#bae2b4" stroke="#bae2b4" fill-opacity="1" stroke-opacity="1"/><path d="M635.7956598745659,-36.552023980766535L506.5487357787788,104.56238142214715L677.1271591773257,65.229366812855Z" fill="#b0dfa8" stroke="#b0dfa8" fill-opacity="1" stroke-opacity="1"/><path d="M635.7956598745659,-36.552023980766535L677.1271591773257,65.229366812855L780.4712811950594,-41.98615506757051Z" fill="#a8d9ad" stroke="#a8d9ad" fill-opacity="1" stroke-opacity="1"/><path d="M780.4712811950594,-41.98615506757051L677.1271591773257,65.229366812855L780.7398279663175,101.86830719467252Z" fill="#9ed69f" stroke="#9ed69f" fill-opacity="1" stroke-opacity="1"/><path d="M780.4712811950594,-41.98615506757051L780.7398279663175,101.86830719467252L929.639061819762,108.8849130552262Z" fill="#92d096" stroke="#92d096" fill-opacity="1" stroke-opacity="1"/><path d="M780.4712811950594,-41.98615506757051L929.639061819762,108.8849130552262L1011.9295771932229,-42.36666136421263Z" fill="#8fc89d" stroke="#8fc89d" fill-opacity="1" stroke-opacity="1"/><path d="M780.4712811950594,-41.98615506757051L1011.9295771932229,-42.36666136421263L1141.9294349383563,-124.77870879229158Z" fill="#8ac0a1" stroke="#8ac0a1" fill-opacity="1" stroke-opacity="1"/><path d="M1011.9295771932229,-42.36666136421263L929.639061819762,108.8849130552262L1082.54053380806,115.2550017926842Z" fill="#82bd8b" stroke="#82bd8b" fill-opacity="1" stroke-opacity="1"/><path d="M1011.9295771932229,-42.36666136421263L1082.54053380806,115.2550017926842L1141.9294349383563,-124.77870879229158Z" fill="#81b59a" stroke="#81b59a" fill-opacity="1" stroke-opacity="1"/><path d="M1141.9294349383563,-124.77870879229158L1082.54053380806,115.2550017926842L1242.3071952303872,92.17955572530627Z" fill="#7dad8b" stroke="#7dad8b" fill-opacity="1" stroke-opacity="1"/><path d="M1141.9294349383563,-124.77870879229158L1242.3071952303872,92.17955572530627L1286.6084646899253,-73.63418831955642Z" fill="#80a694" stroke="#80a694" fill-opacity="1" stroke-opacity="1"/><path d="M1141.9294349383563,-124.77870879229158L1286.6084646899253,-73.63418831955642L1396.9116921769455,-119.62545865681022Z" fill="#80a092" stroke="#80a092" fill-opacity="1" stroke-opacity="1"/><path d="M1286.6084646899253,-73.63418831955642L1242.3071952303872,92.17955572530627L1429.718524729833,106.06646914966404Z" fill="#7c9b7f" stroke="#7c9b7f" fill-opacity="1" stroke-opacity="1"/><path d="M1286.6084646899253,-73.63418831955642L1429.718524729833,106.06646914966404L1396.9116921769455,-119.62545865681022Z" fill="#80968c" stroke="#80968c" fill-opacity="1" stroke-opacity="1"/><path d="M1396.9116921769455,-119.62545865681022L1429.718524729833,106.06646914966404L1532.8709828434512,-106.15737603511661Z" fill="#808d88" stroke="#808d88" fill-opacity="1" stroke-opacity="1"/><path d="M1532.8709828434512,-106.15737603511661L1429.718524729833,106.06646914966404L1547.7371838176623,123.0258971452713Z" fill="#7c8775" stroke="#7c8775" fill-opacity="1" stroke-opacity="1"/><path d="M1532.8709828434512,-106.15737603511661L1547.7371838176623,123.0258971452713L1614.4183027325198,218.13566936179996Z" fill="#788169" stroke="#788169" fill-opacity="1" stroke-opacity="1"/><path d="M-31.111203762702644,33.4170016925782L-98.4672880731523,221.24724029563367L91.73086807131767,240.36592410411686Z" fill="#e6fcbd" stroke="#e6fcbd" fill-opacity="1" stroke-opacity="1"/><path d="M-31.111203762702644,33.4170016925782L91.73086807131767,240.36592410411686L50.416368804872036,36.35573892388493Z" fill="#f1fec3" stroke="#f1fec3" fill-opacity="1" stroke-opacity="1"/><path d="M50.416368804872036,36.35573892388493L91.73086807131767,240.36592410411686L182.79837877489626,107.15630906634033Z" fill="#e7fab7" stroke="#e7fab7" fill-opacity="1" stroke-opacity="1"/><path d="M182.79837877489626,107.15630906634033L91.73086807131767,240.36592410411686L219.225491466932,208.39722643140703Z" fill="#ccf3a9" stroke="#ccf3a9" fill-opacity="1" stroke-opacity="1"/><path d="M182.79837877489626,107.15630906634033L219.225491466932,208.39722643140703L342.67877205275,65.34076128154993Z" fill="#d8f4aa" stroke="#d8f4aa" fill-opacity="1" stroke-opacity="1"/><path d="M342.67877205275,65.34076128154993L219.225491466932,208.39722643140703L399.0975557593629,252.93974126689136Z" fill="#bdec9d" stroke="#bdec9d" fill-opacity="1" stroke-opacity="1"/><path d="M342.67877205275,65.34076128154993L399.0975557593629,252.93974126689136L506.5487357787788,104.56238142214715Z" fill="#bce99d" stroke="#bce99d" fill-opacity="1" stroke-opacity="1"/><path d="M506.5487357787788,104.56238142214715L399.0975557593629,252.93974126689136L572.132914303802,205.72826396673918Z" fill="#a2e192" stroke="#a2e192" fill-opacity="1" stroke-opacity="1"/><path d="M506.5487357787788,104.56238142214715L572.132914303802,205.72826396673918L677.1271591773257,65.229366812855Z" fill="#abe096" stroke="#abe096" fill-opacity="1" stroke-opacity="1"/><path d="M677.1271591773257,65.229366812855L572.132914303802,205.72826396673918L647.5576748140156,268.86910672765225Z" fill="#92d98a" stroke="#92d98a" fill-opacity="1" stroke-opacity="1"/><path d="M677.1271591773257,65.229366812855L647.5576748140156,268.86910672765225L780.7398279663175,101.86830719467252Z" fill="#95d78a" stroke="#95d78a" fill-opacity="1" stroke-opacity="1"/><path d="M780.7398279663175,101.86830719467252L647.5576748140156,268.86910672765225L849.8649281449616,194.64051825925708Z" fill="#7fd180" stroke="#7fd180" fill-opacity="1" stroke-opacity="1"/><path d="M780.7398279663175,101.86830719467252L849.8649281449616,194.64051825925708L929.639061819762,108.8849130552262Z" fill="#86cd82" stroke="#86cd82" fill-opacity="1" stroke-opacity="1"/><path d="M929.639061819762,108.8849130552262L849.8649281449616,194.64051825925708L1020.0547412736341,213.66566764190793Z" fill="#72c178" stroke="#72c178" fill-opacity="1" stroke-opacity="1"/><path d="M929.639061819762,108.8849130552262L1020.0547412736341,213.66566764190793L1082.54053380806,115.2550017926842Z" fill="#75bb78" stroke="#75bb78" fill-opacity="1" stroke-opacity="1"/><path d="M1082.54053380806,115.2550017926842L1020.0547412736341,213.66566764190793L1113.263163366355,264.4737187307328Z" fill="#5db16d" stroke="#5db16d" fill-opacity="1" stroke-opacity="1"/><path d="M1082.54053380806,115.2550017926842L1113.263163366355,264.4737187307328L1242.3071952303872,92.17955572530627Z" fill="#69ac6f" stroke="#69ac6f" fill-opacity="1" stroke-opacity="1"/><path d="M1242.3071952303872,92.17955572530627L1113.263163366355,264.4737187307328L1275.0916596269235,222.88982092868537Z" fill="#5da267" stroke="#5da267" fill-opacity="1" stroke-opacity="1"/><path d="M1242.3071952303872,92.17955572530627L1275.0916596269235,222.88982092868537L1377.6281686732545,201.82151638437063Z" fill="#649a65" stroke="#649a65" fill-opacity="1" stroke-opacity="1"/><path d="M1242.3071952303872,92.17955572530627L1377.6281686732545,201.82151638437063L1429.718524729833,106.06646914966404Z" fill="#719768" stroke="#719768" fill-opacity="1" stroke-opacity="1"/><path d="M1429.718524729833,106.06646914966404L1377.6281686732545,201.82151638437063L1547.7371838176623,123.0258971452713Z" fill="#6e8b61" stroke="#6e8b61" fill-opacity="1" stroke-opacity="1"/><path d="M1547.7371838176623,123.0258971452713L1377.6281686732545,201.82151638437063L1614.4183027325198,218.13566936179996Z" fill="#618258" stroke="#618258" fill-opacity="1" stroke-opacity="1"/><path d="M-98.4672880731523,221.24724029563367L-94.29366271942854,569.6809381246567L-92.9198615020141,336.29598726984113Z" fill="#9ee2a2" stroke="#9ee2a2" fill-opacity="1" stroke-opacity="1"/><path d="M-98.4672880731523,221.24724029563367L-92.9198615020141,336.29598726984113L91.73086807131767,240.36592410411686Z" fill="#c3f4af" stroke="#c3f4af" fill-opacity="1" stroke-opacity="1"/><path d="M91.73086807131767,240.36592410411686L-92.9198615020141,336.29598726984113L119.36183564830571,374.8534634942189Z" fill="#ade9a0" stroke="#ade9a0" fill-opacity="1" stroke-opacity="1"/><path d="M91.73086807131767,240.36592410411686L119.36183564830571,374.8534634942189L246.7186338501051,338.88986927922815Z" fill="#a1e495" stroke="#a1e495" fill-opacity="1" stroke-opacity="1"/><path d="M91.73086807131767,240.36592410411686L246.7186338501051,338.88986927922815L219.225491466932,208.39722643140703Z" fill="#afec9b" stroke="#afec9b" fill-opacity="1" stroke-opacity="1"/><path d="M219.225491466932,208.39722643140703L246.7186338501051,338.88986927922815L330.4680324625224,331.4605514984578Z" fill="#9de38e" stroke="#9de38e" fill-opacity="1" stroke-opacity="1"/><path d="M219.225491466932,208.39722643140703L330.4680324625224,331.4605514984578L399.0975557593629,252.93974126689136Z" fill="#9fe590" stroke="#9fe590" fill-opacity="1" stroke-opacity="1"/><path d="M399.0975557593629,252.93974126689136L330.4680324625224,331.4605514984578L502.66237179748714,378.68147247936577Z" fill="#80d681" stroke="#80d681" fill-opacity="1" stroke-opacity="1"/><path d="M399.0975557593629,252.93974126689136L502.66237179748714,378.68147247936577L572.132914303802,205.72826396673918Z" fill="#83d883" stroke="#83d883" fill-opacity="1" stroke-opacity="1"/><path d="M572.132914303802,205.72826396673918L502.66237179748714,378.68147247936577L635.0262832129374,327.2393388208002Z" fill="#70cf7b" stroke="#70cf7b" fill-opacity="1" stroke-opacity="1"/><path d="M572.132914303802,205.72826396673918L635.0262832129374,327.2393388208002L647.5576748140156,268.86910672765225Z" fill="#76d27d" stroke="#76d27d" fill-opacity="1" stroke-opacity="1"/><path d="M647.5576748140156,268.86910672765225L635.0262832129374,327.2393388208002L781.254600174725,415.52181120496243Z" fill="#55c26d" stroke="#55c26d" fill-opacity="1" stroke-opacity="1"/><path d="M647.5576748140156,268.86910672765225L781.254600174725,415.52181120496243L849.8649281449616,194.64051825925708Z" fill="#5bc56f" stroke="#5bc56f" fill-opacity="1" stroke-opacity="1"/><path d="M849.8649281449616,194.64051825925708L781.254600174725,415.52181120496243L1021.3660978944972,334.39643061719835Z" fill="#46b764" stroke="#46b764" fill-opacity="1" stroke-opacity="1"/><path d="M849.8649281449616,194.64051825925708L1021.3660978944972,334.39643061719835L1020.0547412736341,213.66566764190793Z" fill="#55b96c" stroke="#55b96c" fill-opacity="1" stroke-opacity="1"/><path d="M1020.0547412736341,213.66566764190793L1021.3660978944972,334.39643061719835L1113.263163366355,264.4737187307328Z" fill="#45ac63" stroke="#45ac63" fill-opacity="1" stroke-opacity="1"/><path d="M1113.263163366355,264.4737187307328L1021.3660978944972,334.39643061719835L1101.5981290955096,345.47865001950413Z" fill="#35a25a" stroke="#35a25a" fill-opacity="1" stroke-opacity="1"/><path d="M1113.263163366355,264.4737187307328L1101.5981290955096,345.47865001950413L1275.0916596269235,222.88982092868537Z" fill="#409f5c" stroke="#409f5c" fill-opacity="1" stroke-opacity="1"/><path d="M1275.0916596269235,222.88982092868537L1101.5981290955096,345.47865001950413L1314.0266539296135,400.59474180452526Z" fill="#309050" stroke="#309050" fill-opacity="1" stroke-opacity="1"/><path d="M1275.0916596269235,222.88982092868537L1314.0266539296135,400.59474180452526L1421.0693517467007,371.0532527649775Z" fill="#2e8349" stroke="#2e8349" fill-opacity="1" stroke-opacity="1"/><path d="M1275.0916596269235,222.88982092868537L1421.0693517467007,371.0532527649775L1377.6281686732545,201.82151638437063Z" fill="#448c54" stroke="#448c54" fill-opacity="1" stroke-opacity="1"/><path d="M1377.6281686732545,201.82151638437063L1421.0693517467007,371.0532527649775L1614.4183027325198,218.13566936179996Z" fill="#44804e" stroke="#44804e" fill-opacity="1" stroke-opacity="1"/><path d="M1614.4183027325198,218.13566936179996L1421.0693517467007,371.0532527649775L1556.115478836,387.55948084872216Z" fill="#306f40" stroke="#306f40" fill-opacity="1" stroke-opacity="1"/><path d="M1614.4183027325198,218.13566936179996L1556.115478836,387.55948084872216L1597.8503706632182,482.2211179183796Z" fill="#236436" stroke="#236436" fill-opacity="1" stroke-opacity="1"/><path d="M-92.9198615020141,336.29598726984113L-94.29366271942854,569.6809381246567L35.56649291422218,559.0361897135153Z" fill="#84c38e" stroke="#84c38e" fill-opacity="1" stroke-opacity="1"/><path d="M-92.9198615020141,336.29598726984113L35.56649291422218,559.0361897135153L119.36183564830571,374.8534634942189Z" fill="#90d490" stroke="#90d490" fill-opacity="1" stroke-opacity="1"/><path d="M119.36183564830571,374.8534634942189L35.56649291422218,559.0361897135153L244.54889118205756,549.6676126727834Z" fill="#74bb7c" stroke="#74bb7c" fill-opacity="1" stroke-opacity="1"/><path d="M119.36183564830571,374.8534634942189L244.54889118205756,549.6676126727834L246.7186338501051,338.88986927922815Z" fill="#7dcc80" stroke="#7dcc80" fill-opacity="1" stroke-opacity="1"/><path d="M246.7186338501051,338.88986927922815L244.54889118205756,549.6676126727834L341.0322211915627,528.159617469646Z" fill="#69bb72" stroke="#69bb72" fill-opacity="1" stroke-opacity="1"/><path d="M246.7186338501051,338.88986927922815L341.0322211915627,528.159617469646L330.4680324625224,331.4605514984578Z" fill="#75cd7a" stroke="#75cd7a" fill-opacity="1" stroke-opacity="1"/><path d="M330.4680324625224,331.4605514984578L341.0322211915627,528.159617469646L502.66237179748714,378.68147247936577Z" fill="#67c473" stroke="#67c473" fill-opacity="1" stroke-opacity="1"/><path d="M502.66237179748714,378.68147247936577L341.0322211915627,528.159617469646L546.0078154457733,496.61968641448766Z" fill="#51b168" stroke="#51b168" fill-opacity="1" stroke-opacity="1"/><path d="M502.66237179748714,378.68147247936577L546.0078154457733,496.61968641448766L635.0262832129374,327.2393388208002Z" fill="#53be6b" stroke="#53be6b" fill-opacity="1" stroke-opacity="1"/><path d="M635.0262832129374,327.2393388208002L546.0078154457733,496.61968641448766L682.4338599806651,546.1266172118485Z" fill="#3eaa5f" stroke="#3eaa5f" fill-opacity="1" stroke-opacity="1"/><path d="M635.0262832129374,327.2393388208002L682.4338599806651,546.1266172118485L781.254600174725,415.52181120496243Z" fill="#3aad5d" stroke="#3aad5d" fill-opacity="1" stroke-opacity="1"/><path d="M781.254600174725,415.52181120496243L682.4338599806651,546.1266172118485L872.6370496908203,505.0157775869593Z" fill="#229750" stroke="#229750" fill-opacity="1" stroke-opacity="1"/><path d="M781.254600174725,415.52181120496243L872.6370496908203,505.0157775869593L1021.3660978944972,334.39643061719835Z" fill="#27a053" stroke="#27a053" fill-opacity="1" stroke-opacity="1"/><path d="M1021.3660978944972,334.39643061719835L872.6370496908203,505.0157775869593L926.6248666448519,550.227950932458Z" fill="#188f4a" stroke="#188f4a" fill-opacity="1" stroke-opacity="1"/><path d="M1021.3660978944972,334.39643061719835L926.6248666448519,550.227950932458L1104.927916196175,553.1978516839445Z" fill="#0d8244" stroke="#0d8244" fill-opacity="1" stroke-opacity="1"/><path d="M1021.3660978944972,334.39643061719835L1104.927916196175,553.1978516839445L1101.5981290955096,345.47865001950413Z" fill="#188f4b" stroke="#188f4b" fill-opacity="1" stroke-opacity="1"/><path d="M1101.5981290955096,345.47865001950413L1104.927916196175,553.1978516839445L1314.0266539296135,400.59474180452526Z" fill="#117e42" stroke="#117e42" fill-opacity="1" stroke-opacity="1"/><path d="M1314.0266539296135,400.59474180452526L1104.927916196175,553.1978516839445L1321.9409084646031,492.6207782467827Z" fill="#066938" stroke="#066938" fill-opacity="1" stroke-opacity="1"/><path d="M1314.0266539296135,400.59474180452526L1321.9409084646031,492.6207782467827L1421.0693517467007,371.0532527649775Z" fill="#146e3a" stroke="#146e3a" fill-opacity="1" stroke-opacity="1"/><path d="M1421.0693517467007,371.0532527649775L1321.9409084646031,492.6207782467827L1459.9321535322815,541.358119668439Z" fill="#095b31" stroke="#095b31" fill-opacity="1" stroke-opacity="1"/><path d="M1421.0693517467007,371.0532527649775L1459.9321535322815,541.358119668439L1556.115478836,387.55948084872216Z" fill="#115d32" stroke="#115d32" fill-opacity="1" stroke-opacity="1"/><path d="M1556.115478836,387.55948084872216L1459.9321535322815,541.358119668439L1597.8503706632182,482.2211179183796Z" fill="#094c2a" stroke="#094c2a" fill-opacity="1" stroke-opacity="1"/><path d="M-94.29366271942854,569.6809381246567L-50.83266564179212,829.6799106989056L-65.23928972892463,712.7489812206477Z" fill="#808772" stroke="#808772" fill-opacity="1" stroke-opacity="1"/><path d="M-94.29366271942854,569.6809381246567L-65.23928972892463,712.7489812206477L35.56649291422218,559.0361897135153Z" fill="#80a07c" stroke="#80a07c" fill-opacity="1" stroke-opacity="1"/><path d="M35.56649291422218,559.0361897135153L-65.23928972892463,712.7489812206477L73.99049289524555,641.3270366145298Z" fill="#7e9973" stroke="#7e9973" fill-opacity="1" stroke-opacity="1"/><path d="M35.56649291422218,559.0361897135153L73.99049289524555,641.3270366145298L244.54889118205756,549.6676126727834Z" fill="#73a371" stroke="#73a371" fill-opacity="1" stroke-opacity="1"/><path d="M244.54889118205756,549.6676126727834L73.99049289524555,641.3270366145298L230.18192078452557,668.1331100175157Z" fill="#6b9666" stroke="#6b9666" fill-opacity="1" stroke-opacity="1"/><path d="M244.54889118205756,549.6676126727834L230.18192078452557,668.1331100175157L341.0322211915627,528.159617469646Z" fill="#619d63" stroke="#619d63" fill-opacity="1" stroke-opacity="1"/><path d="M341.0322211915627,528.159617469646L230.18192078452557,668.1331100175157L391.76963625941426,714.439532184042Z" fill="#5b8a58" stroke="#5b8a58" fill-opacity="1" stroke-opacity="1"/><path d="M341.0322211915627,528.159617469646L391.76963625941426,714.439532184042L519.6278178831562,626.0591060156003Z" fill="#4e8955" stroke="#4e8955" fill-opacity="1" stroke-opacity="1"/><path d="M341.0322211915627,528.159617469646L519.6278178831562,626.0591060156003L546.0078154457733,496.61968641448766Z" fill="#479a5c" stroke="#479a5c" fill-opacity="1" stroke-opacity="1"/><path d="M546.0078154457733,496.61968641448766L519.6278178831562,626.0591060156003L682.4338599806651,546.1266172118485Z" fill="#389154" stroke="#389154" fill-opacity="1" stroke-opacity="1"/><path d="M682.4338599806651,546.1266172118485L519.6278178831562,626.0591060156003L687.820090749301,715.2144732652232Z" fill="#317a47" stroke="#317a47" fill-opacity="1" stroke-opacity="1"/><path d="M682.4338599806651,546.1266172118485L687.820090749301,715.2144732652232L854.895218485035,671.8456924892962Z" fill="#236f3d" stroke="#236f3d" fill-opacity="1" stroke-opacity="1"/><path d="M682.4338599806651,546.1266172118485L854.895218485035,671.8456924892962L872.6370496908203,505.0157775869593Z" fill="#1b7e42" stroke="#1b7e42" fill-opacity="1" stroke-opacity="1"/><path d="M872.6370496908203,505.0157775869593L854.895218485035,671.8456924892962L926.6248666448519,550.227950932458Z" fill="#13763e" stroke="#13763e" fill-opacity="1" stroke-opacity="1"/><path d="M926.6248666448519,550.227950932458L854.895218485035,671.8456924892962L936.5045038983226,643.3640643255785Z" fill="#116736" stroke="#116736" fill-opacity="1" stroke-opacity="1"/><path d="M926.6248666448519,550.227950932458L936.5045038983226,643.3640643255785L1104.927916196175,553.1978516839445Z" fill="#0a6937" stroke="#0a6937" fill-opacity="1" stroke-opacity="1"/><path d="M1104.927916196175,553.1978516839445L936.5045038983226,643.3640643255785L1142.7144346525893,666.7309992248192Z" fill="#03562e" stroke="#03562e" fill-opacity="1" stroke-opacity="1"/><path d="M1104.927916196175,553.1978516839445L1142.7144346525893,666.7309992248192L1321.9409084646031,492.6207782467827Z" fill="#00562e" stroke="#00562e" fill-opacity="1" stroke-opacity="1"/><path d="M1321.9409084646031,492.6207782467827L1142.7144346525893,666.7309992248192L1271.3526201900095,719.8523322818801Z" fill="#004124" stroke="#004124" fill-opacity="1" stroke-opacity="1"/><path d="M1321.9409084646031,492.6207782467827L1271.3526201900095,719.8523322818801L1412.7550152596086,645.3062874032184Z" fill="#003920" stroke="#003920" fill-opacity="1" stroke-opacity="1"/><path d="M1321.9409084646031,492.6207782467827L1412.7550152596086,645.3062874032184L1459.9321535322815,541.358119668439Z" fill="#004325" stroke="#004325" fill-opacity="1" stroke-opacity="1"/><path d="M1459.9321535322815,541.358119668439L1412.7550152596086,645.3062874032184L1566.427998105064,637.4217174947262Z" fill="#002c1a" stroke="#002c1a" fill-opacity="1" stroke-opacity="1"/><path d="M1459.9321535322815,541.358119668439L1566.427998105064,637.4217174947262L1597.8503706632182,482.2211179183796Z" fill="#00351e" stroke="#00351e" fill-opacity="1" stroke-opacity="1"/><path d="M1597.8503706632182,482.2211179183796L1566.427998105064,637.4217174947262L1556.5831521293148,788.7549348874018Z" fill="#001b11" stroke="#001b11" fill-opacity="1" stroke-opacity="1"/><path d="M-65.23928972892463,712.7489812206477L-50.83266564179212,829.6799106989056L110.9551324043423,832.890281570144Z" fill="#808066" stroke="#808066" fill-opacity="1" stroke-opacity="1"/><path d="M-65.23928972892463,712.7489812206477L110.9551324043423,832.890281570144L73.99049289524555,641.3270366145298Z" fill="#7b7f65" stroke="#7b7f65" fill-opacity="1" stroke-opacity="1"/><path d="M73.99049289524555,641.3270366145298L110.9551324043423,832.890281570144L200.89796984102577,810.9837441006675Z" fill="#717a5a" stroke="#717a5a" fill-opacity="1" stroke-opacity="1"/><path d="M73.99049289524555,641.3270366145298L200.89796984102577,810.9837441006675L230.18192078452557,668.1331100175157Z" fill="#6d7f5c" stroke="#6d7f5c" fill-opacity="1" stroke-opacity="1"/><path d="M230.18192078452557,668.1331100175157L200.89796984102577,810.9837441006675L354.6303206589073,805.1908528897911Z" fill="#63744e" stroke="#63744e" fill-opacity="1" stroke-opacity="1"/><path d="M230.18192078452557,668.1331100175157L354.6303206589073,805.1908528897911L391.76963625941426,714.439532184042Z" fill="#5a714c" stroke="#5a714c" fill-opacity="1" stroke-opacity="1"/><path d="M391.76963625941426,714.439532184042L354.6303206589073,805.1908528897911L536.2534240353853,866.0083578201011Z" fill="#4c6a44" stroke="#4c6a44" fill-opacity="1" stroke-opacity="1"/><path d="M391.76963625941426,714.439532184042L536.2534240353853,866.0083578201011L519.6278178831562,626.0591060156003Z" fill="#456741" stroke="#456741" fill-opacity="1" stroke-opacity="1"/><path d="M519.6278178831562,626.0591060156003L536.2534240353853,866.0083578201011L687.820090749301,715.2144732652232Z" fill="#38613b" stroke="#38613b" fill-opacity="1" stroke-opacity="1"/><path d="M687.820090749301,715.2144732652232L536.2534240353853,866.0083578201011L631.1824986478314,851.9182042684406Z" fill="#335f38" stroke="#335f38" fill-opacity="1" stroke-opacity="1"/><path d="M687.820090749301,715.2144732652232L631.1824986478314,851.9182042684406L799.8822200112045,846.6202448820695Z" fill="#275932" stroke="#275932" fill-opacity="1" stroke-opacity="1"/><path d="M687.820090749301,715.2144732652232L799.8822200112045,846.6202448820695L854.895218485035,671.8456924892962Z" fill="#1e542d" stroke="#1e542d" fill-opacity="1" stroke-opacity="1"/><path d="M854.895218485035,671.8456924892962L799.8822200112045,846.6202448820695L947.4540441995487,784.2683637049049Z" fill="#144d28" stroke="#144d28" fill-opacity="1" stroke-opacity="1"/><path d="M854.895218485035,671.8456924892962L947.4540441995487,784.2683637049049L936.5045038983226,643.3640643255785Z" fill="#10512b" stroke="#10512b" fill-opacity="1" stroke-opacity="1"/><path d="M936.5045038983226,643.3640643255785L947.4540441995487,784.2683637049049L1142.7144346525893,666.7309992248192Z" fill="#084726" stroke="#084726" fill-opacity="1" stroke-opacity="1"/><path d="M1142.7144346525893,666.7309992248192L947.4540441995487,784.2683637049049L1138.8697892427444,850.5830352427438Z" fill="#02361d" stroke="#02361d" fill-opacity="1" stroke-opacity="1"/><path d="M1142.7144346525893,666.7309992248192L1138.8697892427444,850.5830352427438L1268.8789333915338,781.9454352604225Z" fill="#002a17" stroke="#002a17" fill-opacity="1" stroke-opacity="1"/><path d="M1142.7144346525893,666.7309992248192L1268.8789333915338,781.9454352604225L1271.3526201900095,719.8523322818801Z" fill="#002817" stroke="#002817" fill-opacity="1" stroke-opacity="1"/><path d="M1271.3526201900095,719.8523322818801L1268.8789333915338,781.9454352604225L1379.9704601755366,789.8661017417908Z" fill="#001d10" stroke="#001d10" fill-opacity="1" stroke-opacity="1"/><path d="M1271.3526201900095,719.8523322818801L1379.9704601755366,789.8661017417908L1412.7550152596086,645.3062874032184Z" fill="#001b11" stroke="#001b11" fill-opacity="1" stroke-opacity="1"/><path d="M1412.7550152596086,645.3062874032184L1379.9704601755366,789.8661017417908L1556.5831521293148,788.7549348874018Z" fill="#000e09" stroke="#000e09" fill-opacity="1" stroke-opacity="1"/><path d="M1412.7550152596086,645.3062874032184L1556.5831521293148,788.7549348874018L1566.427998105064,637.4217174947262Z" fill="#00120d" stroke="#00120d" fill-opacity="1" stroke-opacity="1"/><path d="M-50.83266564179212,829.6799106989056L536.2534240353853,866.0083578201011L110.9551324043423,832.890281570144Z" fill="#6a7754" stroke="#6a7754" fill-opacity="1" stroke-opacity="1"/><path d="M110.9551324043423,832.890281570144L536.2534240353853,866.0083578201011L200.89796984102577,810.9837441006675Z" fill="#60734c" stroke="#60734c" fill-opacity="1" stroke-opacity="1"/><path d="M200.89796984102577,810.9837441006675L536.2534240353853,866.0083578201011L354.6303206589073,805.1908528897911Z" fill="#556e47" stroke="#556e47" fill-opacity="1" stroke-opacity="1"/><path d="M536.2534240353853,866.0083578201011L1138.8697892427444,850.5830352427438L799.8822200112045,846.6202448820695Z" fill="#18512a" stroke="#18512a" fill-opacity="1" stroke-opacity="1"/><path d="M536.2534240353853,866.0083578201011L799.8822200112045,846.6202448820695L631.1824986478314,851.9182042684406Z" fill="#2e5c35" stroke="#2e5c35" fill-opacity="1" stroke-opacity="1"/><path d="M799.8822200112045,846.6202448820695L1138.8697892427444,850.5830352427438L947.4540441995487,784.2683637049049Z" fill="#0c4223" stroke="#0c4223" fill-opacity="1" stroke-opacity="1"/><path d="M1138.8697892427444,850.5830352427438L1556.5831521293148,788.7549348874018L1379.9704601755366,789.8661017417908Z" fill="#00180e" stroke="#00180e" fill-opacity="1" stroke-opacity="1"/><path d="M1138.8697892427444,850.5830352427438L1379.9704601755366,789.8661017417908L1268.8789333915338,781.9454352604225Z" fill="#002213" stroke="#002213" fill-opacity="1" stroke-opacity="1"/></g></svg>