<svg width="1366" height="634" xmlns="http://www.w3.org/2000/svg"><g><path d="M-77.06493441946805,-115.72679723612964L-98.99510012473911,124.14745001588017L79.62124769110233,-44.55113671720028Z" fill="#bd560f" stroke="#bd560f" fill-opacity="1" stroke-opacity="1"/><path d="M-77.06493441946805,-115.72679723612964L79.62124769110233,-44.55113671720028L205.3449508268386,-33.45534857362509Z" fill="#c15111" stroke="#c15111" fill-opacity="1" stroke-opacity="1"/><path d="M-77.06493441946805,-115.72679723612964L205.3449508268386,-33.45534857362509L409.2815837590024,-43.808973976410925Z" fill="#d0631f" stroke="#d0631f" fill-opacity="1" stroke-opacity="1"/><path d="M-77.06493441946805,-115.72679723612964L409.2815837590024,-43.808973976410925L935.315632307902,-112.4335463391617Z" fill="#d77a53" stroke="#d77a53" fill-opacity="1" stroke-opacity="1"/><path d="M-77.06493441946805,-115.72679723612964L935.315632307902,-112.4335463391617L1427.033452084288,-113.79088102839887Z" fill="#b5656f" stroke="#b5656f" fill-opacity="1" stroke-opacity="1"/><path d="M79.62124769110233,-44.55113671720028L-98.99510012473911,124.14745001588017L45.996144344098866,114.26688833162189Z" fill="#d27d22" stroke="#d27d22" fill-opacity="1" stroke-opacity="1"/><path d="M79.62124769110233,-44.55113671720028L45.996144344098866,114.26688833162189L205.3449508268386,-33.45534857362509Z" fill="#d67825" stroke="#d67825" fill-opacity="1" stroke-opacity="1"/><path d="M205.3449508268386,-33.45534857362509L45.996144344098866,114.26688833162189L228.2734711887315,107.60508032981306Z" fill="#e79635" stroke="#e79635" fill-opacity="1" stroke-opacity="1"/><path d="M205.3449508268386,-33.45534857362509L228.2734711887315,107.60508032981306L380.661933333613,41.68180162087083Z" fill="#ec9d45" stroke="#ec9d45" fill-opacity="1" stroke-opacity="1"/><path d="M205.3449508268386,-33.45534857362509L380.661933333613,41.68180162087083L409.2815837590024,-43.808973976410925Z" fill="#e48f4a" stroke="#e48f4a" fill-opacity="1" stroke-opacity="1"/><path d="M409.2815837590024,-43.808973976410925L380.661933333613,41.68180162087083L492.3365972004831,-30.582056078128517Z" fill="#e79d64" stroke="#e79d64" fill-opacity="1" stroke-opacity="1"/><path d="M409.2815837590024,-43.808973976410925L492.3365972004831,-30.582056078128517L708.1852811155841,-62.55993745289743Z" fill="#da916d" stroke="#da916d" fill-opacity="1" stroke-opacity="1"/><path d="M409.2815837590024,-43.808973976410925L708.1852811155841,-62.55993745289743L935.315632307902,-112.4335463391617Z" fill="#c88379" stroke="#c88379" fill-opacity="1" stroke-opacity="1"/><path d="M492.3365972004831,-30.582056078128517L380.661933333613,41.68180162087083L500.7554163224995,56.432941602542996Z" fill="#eeae72" stroke="#eeae72" fill-opacity="1" stroke-opacity="1"/><path d="M492.3365972004831,-30.582056078128517L500.7554163224995,56.432941602542996L681.4359866082668,63.782902201637626Z" fill="#e7b07f" stroke="#e7b07f" fill-opacity="1" stroke-opacity="1"/><path d="M492.3365972004831,-30.582056078128517L681.4359866082668,63.782902201637626L708.1852811155841,-62.55993745289743Z" fill="#d99e7f" stroke="#d99e7f" fill-opacity="1" stroke-opacity="1"/><path d="M708.1852811155841,-62.55993745289743L681.4359866082668,63.782902201637626L845.398458186537,-25.864136801101267Z" fill="#cd9480" stroke="#cd9480" fill-opacity="1" stroke-opacity="1"/><path d="M708.1852811155841,-62.55993745289743L845.398458186537,-25.864136801101267L935.315632307902,-112.4335463391617Z" fill="#b56d6d" stroke="#b56d6d" fill-opacity="1" stroke-opacity="1"/><path d="M845.398458186537,-25.864136801101267L681.4359866082668,63.782902201637626L849.439954594709,50.09491015225649Z" fill="#ce9c83" stroke="#ce9c83" fill-opacity="1" stroke-opacity="1"/><path d="M845.398458186537,-25.864136801101267L849.439954594709,50.09491015225649L999.4630123022944,92.39671472460032Z" fill="#c08e7c" stroke="#c08e7c" fill-opacity="1" stroke-opacity="1"/><path d="M845.398458186537,-25.864136801101267L999.4630123022944,92.39671472460032L935.315632307902,-112.4335463391617Z" fill="#b2726e" stroke="#b2726e" fill-opacity="1" stroke-opacity="1"/><path d="M935.315632307902,-112.4335463391617L999.4630123022944,92.39671472460032L1089.3200765829533,-73.19221231155097Z" fill="#a25961" stroke="#a25961" fill-opacity="1" stroke-opacity="1"/><path d="M935.315632307902,-112.4335463391617L1089.3200765829533,-73.19221231155097L1427.033452084288,-113.79088102839887Z" fill="#7f1b43" stroke="#7f1b43" fill-opacity="1" stroke-opacity="1"/><path d="M1089.3200765829533,-73.19221231155097L999.4630123022944,92.39671472460032L1132.8356872312725,69.84007400460541Z" fill="#a56364" stroke="#a56364" fill-opacity="1" stroke-opacity="1"/><path d="M1089.3200765829533,-73.19221231155097L1132.8356872312725,69.84007400460541L1291.7366210371256,-46.55429052654654Z" fill="#8c3a4e" stroke="#8c3a4e" fill-opacity="1" stroke-opacity="1"/><path d="M1089.3200765829533,-73.19221231155097L1291.7366210371256,-46.55429052654654L1427.033452084288,-113.79088102839887Z" fill="#711436" stroke="#711436" fill-opacity="1" stroke-opacity="1"/><path d="M1291.7366210371256,-46.55429052654654L1132.8356872312725,69.84007400460541L1292.8989868378267,47.880644956603646Z" fill="#8a3f4d" stroke="#8a3f4d" fill-opacity="1" stroke-opacity="1"/><path d="M1291.7366210371256,-46.55429052654654L1292.8989868378267,47.880644956603646L1390.2985049877316,80.17520534340292Z" fill="#7e4043" stroke="#7e4043" fill-opacity="1" stroke-opacity="1"/><path d="M1291.7366210371256,-46.55429052654654L1390.2985049877316,80.17520534340292L1427.033452084288,-113.79088102839887Z" fill="#6c2933" stroke="#6c2933" fill-opacity="1" stroke-opacity="1"/><path d="M1427.033452084288,-113.79088102839887L1390.2985049877316,80.17520534340292L1563.511428493075,-26.235322980210185Z" fill="#672c28" stroke="#672c28" fill-opacity="1" stroke-opacity="1"/><path d="M1563.511428493075,-26.235322980210185L1390.2985049877316,80.17520534340292L1528.4346750937402,75.75181804131716Z" fill="#734730" stroke="#734730" fill-opacity="1" stroke-opacity="1"/><path d="M1563.511428493075,-26.235322980210185L1528.4346750937402,75.75181804131716L1572.8056100895628,215.22198917809874Z" fill="#7c5a31" stroke="#7c5a31" fill-opacity="1" stroke-opacity="1"/><path d="M1563.511428493075,-26.235322980210185L1572.8056100895628,215.22198917809874L1608.9316843776032,566.5540698450059Z" fill="#80807f" stroke="#80807f" fill-opacity="1" stroke-opacity="1"/><path d="M-98.99510012473911,124.14745001588017L-87.17558840289712,525.7777243619785L-59.87738277763128,400.6525152595714Z" fill="#c3917c" stroke="#c3917c" fill-opacity="1" stroke-opacity="1"/><path d="M-98.99510012473911,124.14745001588017L-59.87738277763128,400.6525152595714L-55.90831427834928,175.67196283489466Z" fill="#d0a071" stroke="#d0a071" fill-opacity="1" stroke-opacity="1"/><path d="M-98.99510012473911,124.14745001588017L-55.90831427834928,175.67196283489466L45.996144344098866,114.26688833162189Z" fill="#d4913c" stroke="#d4913c" fill-opacity="1" stroke-opacity="1"/><path d="M45.996144344098866,114.26688833162189L-55.90831427834928,175.67196283489466L112.51475093886256,213.62764951772988Z" fill="#dea557" stroke="#dea557" fill-opacity="1" stroke-opacity="1"/><path d="M45.996144344098866,114.26688833162189L112.51475093886256,213.62764951772988L228.2734711887315,107.60508032981306Z" fill="#ebae54" stroke="#ebae54" fill-opacity="1" stroke-opacity="1"/><path d="M228.2734711887315,107.60508032981306L112.51475093886256,213.62764951772988L241.98337111156434,266.7183172190562Z" fill="#f4c77e" stroke="#f4c77e" fill-opacity="1" stroke-opacity="1"/><path d="M228.2734711887315,107.60508032981306L241.98337111156434,266.7183172190562L398.0894575593993,238.9445555396378Z" fill="#fad898" stroke="#fad898" fill-opacity="1" stroke-opacity="1"/><path d="M228.2734711887315,107.60508032981306L398.0894575593993,238.9445555396378L380.661933333613,41.68180162087083Z" fill="#fbc872" stroke="#fbc872" fill-opacity="1" stroke-opacity="1"/><path d="M380.661933333613,41.68180162087083L398.0894575593993,238.9445555396378L500.7554163224995,56.432941602542996Z" fill="#fecf7e" stroke="#fecf7e" fill-opacity="1" stroke-opacity="1"/><path d="M500.7554163224995,56.432941602542996L398.0894575593993,238.9445555396378L534.6155899344012,229.73823794163764Z" fill="#fde5b2" stroke="#fde5b2" fill-opacity="1" stroke-opacity="1"/><path d="M500.7554163224995,56.432941602542996L534.6155899344012,229.73823794163764L666.4282600162551,197.02285809908062Z" fill="#f5e0b3" stroke="#f5e0b3" fill-opacity="1" stroke-opacity="1"/><path d="M500.7554163224995,56.432941602542996L666.4282600162551,197.02285809908062L681.4359866082668,63.782902201637626Z" fill="#f1cf94" stroke="#f1cf94" fill-opacity="1" stroke-opacity="1"/><path d="M681.4359866082668,63.782902201637626L666.4282600162551,197.02285809908062L785.136156831868,175.94322690274566Z" fill="#e8d5b4" stroke="#e8d5b4" fill-opacity="1" stroke-opacity="1"/><path d="M681.4359866082668,63.782902201637626L785.136156831868,175.94322690274566L849.439954594709,50.09491015225649Z" fill="#ddbb92" stroke="#ddbb92" fill-opacity="1" stroke-opacity="1"/><path d="M849.439954594709,50.09491015225649L785.136156831868,175.94322690274566L959.1407637111843,215.75070421677083Z" fill="#d3bca8" stroke="#d3bca8" fill-opacity="1" stroke-opacity="1"/><path d="M849.439954594709,50.09491015225649L959.1407637111843,215.75070421677083L999.4630123022944,92.39671472460032Z" fill="#c8a78d" stroke="#c8a78d" fill-opacity="1" stroke-opacity="1"/><path d="M999.4630123022944,92.39671472460032L959.1407637111843,215.75070421677083L1111.4998223027214,233.0171582987532Z" fill="#bba4ab" stroke="#bba4ab" fill-opacity="1" stroke-opacity="1"/><path d="M999.4630123022944,92.39671472460032L1111.4998223027214,233.0171582987532L1132.8356872312725,69.84007400460541Z" fill="#b28983" stroke="#b28983" fill-opacity="1" stroke-opacity="1"/><path d="M1132.8356872312725,69.84007400460541L1111.4998223027214,233.0171582987532L1279.2287344578654,203.2665312755853Z" fill="#a47f90" stroke="#a47f90" fill-opacity="1" stroke-opacity="1"/><path d="M1132.8356872312725,69.84007400460541L1279.2287344578654,203.2665312755853L1292.8989868378267,47.880644956603646Z" fill="#9b625f" stroke="#9b625f" fill-opacity="1" stroke-opacity="1"/><path d="M1292.8989868378267,47.880644956603646L1279.2287344578654,203.2665312755853L1390.2985049877316,80.17520534340292Z" fill="#8e6356" stroke="#8e6356" fill-opacity="1" stroke-opacity="1"/><path d="M1390.2985049877316,80.17520534340292L1279.2287344578654,203.2665312755853L1383.4251130232587,221.53031195048243Z" fill="#8a7379" stroke="#8a7379" fill-opacity="1" stroke-opacity="1"/><path d="M1390.2985049877316,80.17520534340292L1383.4251130232587,221.53031195048243L1528.4346750937402,75.75181804131716Z" fill="#806751" stroke="#806751" fill-opacity="1" stroke-opacity="1"/><path d="M1528.4346750937402,75.75181804131716L1383.4251130232587,221.53031195048243L1572.8056100895628,215.22198917809874Z" fill="#807468" stroke="#807468" fill-opacity="1" stroke-opacity="1"/><path d="M-55.90831427834928,175.67196283489466L-59.87738277763128,400.6525152595714L112.51475093886256,213.62764951772988Z" fill="#d9ac79" stroke="#d9ac79" fill-opacity="1" stroke-opacity="1"/><path d="M112.51475093886256,213.62764951772988L-59.87738277763128,400.6525152595714L123.93591671716422,384.18807084672153Z" fill="#dcaf89" stroke="#dcaf89" fill-opacity="1" stroke-opacity="1"/><path d="M112.51475093886256,213.62764951772988L123.93591671716422,384.18807084672153L241.98337111156434,266.7183172190562Z" fill="#efc692" stroke="#efc692" fill-opacity="1" stroke-opacity="1"/><path d="M241.98337111156434,266.7183172190562L123.93591671716422,384.18807084672153L232.4266341049224,395.07277079392225Z" fill="#e9c099" stroke="#e9c099" fill-opacity="1" stroke-opacity="1"/><path d="M241.98337111156434,266.7183172190562L232.4266341049224,395.07277079392225L355.90811411384493,402.25210576318204Z" fill="#edc8a8" stroke="#edc8a8" fill-opacity="1" stroke-opacity="1"/><path d="M241.98337111156434,266.7183172190562L355.90811411384493,402.25210576318204L398.0894575593993,238.9445555396378Z" fill="#fbdfb8" stroke="#fbdfb8" fill-opacity="1" stroke-opacity="1"/><path d="M398.0894575593993,238.9445555396378L355.90811411384493,402.25210576318204L485.13581794686615,341.34318311698735Z" fill="#fae6cf" stroke="#fae6cf" fill-opacity="1" stroke-opacity="1"/><path d="M398.0894575593993,238.9445555396378L485.13581794686615,341.34318311698735L534.6155899344012,229.73823794163764Z" fill="#fdf0d4" stroke="#fdf0d4" fill-opacity="1" stroke-opacity="1"/><path d="M534.6155899344012,229.73823794163764L485.13581794686615,341.34318311698735L648.173004295677,351.45940717775375Z" fill="#f6eee5" stroke="#f6eee5" fill-opacity="1" stroke-opacity="1"/><path d="M534.6155899344012,229.73823794163764L648.173004295677,351.45940717775375L666.4282600162551,197.02285809908062Z" fill="#f1eee3" stroke="#f1eee3" fill-opacity="1" stroke-opacity="1"/><path d="M666.4282600162551,197.02285809908062L648.173004295677,351.45940717775375L785.136156831868,175.94322690274566Z" fill="#e9eae6" stroke="#e9eae6" fill-opacity="1" stroke-opacity="1"/><path d="M785.136156831868,175.94322690274566L648.173004295677,351.45940717775375L862.0209947228432,364.80797154363245Z" fill="#e0dfeb" stroke="#e0dfeb" fill-opacity="1" stroke-opacity="1"/><path d="M785.136156831868,175.94322690274566L862.0209947228432,364.80797154363245L959.1407637111843,215.75070421677083Z" fill="#d2ced9" stroke="#d2ced9" fill-opacity="1" stroke-opacity="1"/><path d="M959.1407637111843,215.75070421677083L862.0209947228432,364.80797154363245L944.9302159948274,407.9345187637955Z" fill="#c6bfde" stroke="#c6bfde" fill-opacity="1" stroke-opacity="1"/><path d="M959.1407637111843,215.75070421677083L944.9302159948274,407.9345187637955L1116.0771802533418,341.9349050614983Z" fill="#bcafd4" stroke="#bcafd4" fill-opacity="1" stroke-opacity="1"/><path d="M959.1407637111843,215.75070421677083L1116.0771802533418,341.9349050614983L1111.4998223027214,233.0171582987532Z" fill="#b5a4c4" stroke="#b5a4c4" fill-opacity="1" stroke-opacity="1"/><path d="M1111.4998223027214,233.0171582987532L1116.0771802533418,341.9349050614983L1279.2287344578654,203.2665312755853Z" fill="#a58cb5" stroke="#a58cb5" fill-opacity="1" stroke-opacity="1"/><path d="M1279.2287344578654,203.2665312755853L1116.0771802533418,341.9349050614983L1275.1648747129366,391.0193440038711Z" fill="#9d80b8" stroke="#9d80b8" fill-opacity="1" stroke-opacity="1"/><path d="M1279.2287344578654,203.2665312755853L1275.1648747129366,391.0193440038711L1383.4251130232587,221.53031195048243Z" fill="#8f80a5" stroke="#8f80a5" fill-opacity="1" stroke-opacity="1"/><path d="M1383.4251130232587,221.53031195048243L1275.1648747129366,391.0193440038711L1448.2667077099904,344.0185371087864Z" fill="#867fa6" stroke="#867fa6" fill-opacity="1" stroke-opacity="1"/><path d="M1383.4251130232587,221.53031195048243L1448.2667077099904,344.0185371087864L1572.8056100895628,215.22198917809874Z" fill="#80808f" stroke="#80808f" fill-opacity="1" stroke-opacity="1"/><path d="M1572.8056100895628,215.22198917809874L1448.2667077099904,344.0185371087864L1543.5961030423641,332.93224645312876Z" fill="#80808f" stroke="#80808f" fill-opacity="1" stroke-opacity="1"/><path d="M1572.8056100895628,215.22198917809874L1543.5961030423641,332.93224645312876L1608.9316843776032,566.5540698450059Z" fill="#6d6a86" stroke="#6d6a86" fill-opacity="1" stroke-opacity="1"/><path d="M-59.87738277763128,400.6525152595714L-87.17558840289712,525.7777243619785L77.67970357090235,500.62682311981916Z" fill="#9d5e63" stroke="#9d5e63" fill-opacity="1" stroke-opacity="1"/><path d="M-59.87738277763128,400.6525152595714L77.67970357090235,500.62682311981916L123.93591671716422,384.18807084672153Z" fill="#b9857c" stroke="#b9857c" fill-opacity="1" stroke-opacity="1"/><path d="M123.93591671716422,384.18807084672153L77.67970357090235,500.62682311981916L246.46614100784063,481.5402470296249Z" fill="#bd8680" stroke="#bd8680" fill-opacity="1" stroke-opacity="1"/><path d="M123.93591671716422,384.18807084672153L246.46614100784063,481.5402470296249L232.4266341049224,395.07277079392225Z" fill="#d1a391" stroke="#d1a391" fill-opacity="1" stroke-opacity="1"/><path d="M232.4266341049224,395.07277079392225L246.46614100784063,481.5402470296249L355.90811411384493,402.25210576318204Z" fill="#d4aba1" stroke="#d4aba1" fill-opacity="1" stroke-opacity="1"/><path d="M355.90811411384493,402.25210576318204L246.46614100784063,481.5402470296249L348.8299203570932,516.0339974332601Z" fill="#c5999d" stroke="#c5999d" fill-opacity="1" stroke-opacity="1"/><path d="M355.90811411384493,402.25210576318204L348.8299203570932,516.0339974332601L494.74866210948676,540.271677216515Z" fill="#c098ac" stroke="#c098ac" fill-opacity="1" stroke-opacity="1"/><path d="M355.90811411384493,402.25210576318204L494.74866210948676,540.271677216515L485.13581794686615,341.34318311698735Z" fill="#d8c0cb" stroke="#d8c0cb" fill-opacity="1" stroke-opacity="1"/><path d="M485.13581794686615,341.34318311698735L494.74866210948676,540.271677216515L648.173004295677,351.45940717775375Z" fill="#d7c8db" stroke="#d7c8db" fill-opacity="1" stroke-opacity="1"/><path d="M648.173004295677,351.45940717775375L494.74866210948676,540.271677216515L627.4177818791941,558.8987811235711Z" fill="#b89fcb" stroke="#b89fcb" fill-opacity="1" stroke-opacity="1"/><path d="M648.173004295677,351.45940717775375L627.4177818791941,558.8987811235711L832.8621294116601,498.44068435486406Z" fill="#b3a3d9" stroke="#b3a3d9" fill-opacity="1" stroke-opacity="1"/><path d="M648.173004295677,351.45940717775375L832.8621294116601,498.44068435486406L862.0209947228432,364.80797154363245Z" fill="#c0b8e4" stroke="#c0b8e4" fill-opacity="1" stroke-opacity="1"/><path d="M862.0209947228432,364.80797154363245L832.8621294116601,498.44068435486406L944.9302159948274,407.9345187637955Z" fill="#aca0d8" stroke="#aca0d8" fill-opacity="1" stroke-opacity="1"/><path d="M944.9302159948274,407.9345187637955L832.8621294116601,498.44068435486406L970.3366975532845,495.08432450238615Z" fill="#9581c7" stroke="#9581c7" fill-opacity="1" stroke-opacity="1"/><path d="M944.9302159948274,407.9345187637955L970.3366975532845,495.08432450238615L1116.0771802533418,341.9349050614983Z" fill="#9b88ca" stroke="#9b88ca" fill-opacity="1" stroke-opacity="1"/><path d="M1116.0771802533418,341.9349050614983L970.3366975532845,495.08432450238615L1075.5960871465504,554.7316539334133Z" fill="#8263b6" stroke="#8263b6" fill-opacity="1" stroke-opacity="1"/><path d="M1116.0771802533418,341.9349050614983L1075.5960871465504,554.7316539334133L1235.5591367930174,543.3369395788759Z" fill="#6f46a5" stroke="#6f46a5" fill-opacity="1" stroke-opacity="1"/><path d="M1116.0771802533418,341.9349050614983L1235.5591367930174,543.3369395788759L1275.1648747129366,391.0193440038711Z" fill="#7a57af" stroke="#7a57af" fill-opacity="1" stroke-opacity="1"/><path d="M1275.1648747129366,391.0193440038711L1235.5591367930174,543.3369395788759L1390.5678575159982,550.149300461635Z" fill="#512b8c" stroke="#512b8c" fill-opacity="1" stroke-opacity="1"/><path d="M1275.1648747129366,391.0193440038711L1390.5678575159982,550.149300461635L1448.2667077099904,344.0185371087864Z" fill="#605199" stroke="#605199" fill-opacity="1" stroke-opacity="1"/><path d="M1448.2667077099904,344.0185371087864L1390.5678575159982,550.149300461635L1608.9316843776032,566.5540698450059Z" fill="#422f77" stroke="#422f77" fill-opacity="1" stroke-opacity="1"/><path d="M1448.2667077099904,344.0185371087864L1608.9316843776032,566.5540698450059L1543.5961030423641,332.93224645312876Z" fill="#5e5887" stroke="#5e5887" fill-opacity="1" stroke-opacity="1"/><path d="M-87.17558840289712,525.7777243619785L-60.45680036768317,874.2156258551404L-58.48383055999875,699.4645815342665Z" fill="#502118" stroke="#502118" fill-opacity="1" stroke-opacity="1"/><path d="M-87.17558840289712,525.7777243619785L-58.48383055999875,699.4645815342665L77.67970357090235,500.62682311981916Z" fill="#772941" stroke="#772941" fill-opacity="1" stroke-opacity="1"/><path d="M77.67970357090235,500.62682311981916L-58.48383055999875,699.4645815342665L31.828883313573897,719.436958595179Z" fill="#632f31" stroke="#632f31" fill-opacity="1" stroke-opacity="1"/><path d="M77.67970357090235,500.62682311981916L31.828883313573897,719.436958595179L217.7271950757131,686.0007973387837Z" fill="#713e3e" stroke="#713e3e" fill-opacity="1" stroke-opacity="1"/><path d="M77.67970357090235,500.62682311981916L217.7271950757131,686.0007973387837L246.46614100784063,481.5402470296249Z" fill="#995162" stroke="#995162" fill-opacity="1" stroke-opacity="1"/><path d="M246.46614100784063,481.5402470296249L217.7271950757131,686.0007973387837L348.8299203570932,516.0339974332601Z" fill="#9f5c71" stroke="#9f5c71" fill-opacity="1" stroke-opacity="1"/><path d="M348.8299203570932,516.0339974332601L217.7271950757131,686.0007973387837L391.02868486661464,668.5833293013275Z" fill="#885e69" stroke="#885e69" fill-opacity="1" stroke-opacity="1"/><path d="M348.8299203570932,516.0339974332601L391.02868486661464,668.5833293013275L494.74866210948676,540.271677216515Z" fill="#9e6a91" stroke="#9e6a91" fill-opacity="1" stroke-opacity="1"/><path d="M494.74866210948676,540.271677216515L391.02868486661464,668.5833293013275L570.0988583732396,651.0471820132807Z" fill="#8b7091" stroke="#8b7091" fill-opacity="1" stroke-opacity="1"/><path d="M494.74866210948676,540.271677216515L570.0988583732396,651.0471820132807L627.4177818791941,558.8987811235711Z" fill="#936fa6" stroke="#936fa6" fill-opacity="1" stroke-opacity="1"/><path d="M627.4177818791941,558.8987811235711L570.0988583732396,651.0471820132807L703.8320864550769,719.931804575026Z" fill="#766e9b" stroke="#766e9b" fill-opacity="1" stroke-opacity="1"/><path d="M627.4177818791941,558.8987811235711L703.8320864550769,719.931804575026L832.8621294116601,498.44068435486406Z" fill="#8067ae" stroke="#8067ae" fill-opacity="1" stroke-opacity="1"/><path d="M832.8621294116601,498.44068435486406L703.8320864550769,719.931804575026L871.694954438135,658.2225372549146Z" fill="#68599c" stroke="#68599c" fill-opacity="1" stroke-opacity="1"/><path d="M832.8621294116601,498.44068435486406L871.694954438135,658.2225372549146L970.3366975532845,495.08432450238615Z" fill="#7954ad" stroke="#7954ad" fill-opacity="1" stroke-opacity="1"/><path d="M970.3366975532845,495.08432450238615L871.694954438135,658.2225372549146L1007.2527917800471,634.2399673303589Z" fill="#5f3e97" stroke="#5f3e97" fill-opacity="1" stroke-opacity="1"/><path d="M970.3366975532845,495.08432450238615L1007.2527917800471,634.2399673303589L1075.5960871465504,554.7316539334133Z" fill="#62339a" stroke="#62339a" fill-opacity="1" stroke-opacity="1"/><path d="M1075.5960871465504,554.7316539334133L1007.2527917800471,634.2399673303589L1125.7767766946927,669.7098185773939Z" fill="#432380" stroke="#432380" fill-opacity="1" stroke-opacity="1"/><path d="M1075.5960871465504,554.7316539334133L1125.7767766946927,669.7098185773939L1235.5591367930174,543.3369395788759Z" fill="#441280" stroke="#441280" fill-opacity="1" stroke-opacity="1"/><path d="M1235.5591367930174,543.3369395788759L1125.7767766946927,669.7098185773939L1320.9277608897537,719.3789895856753Z" fill="#220063" stroke="#220063" fill-opacity="1" stroke-opacity="1"/><path d="M1235.5591367930174,543.3369395788759L1320.9277608897537,719.3789895856753L1383.0386652844027,635.7215882046148Z" fill="#19005c" stroke="#19005c" fill-opacity="1" stroke-opacity="1"/><path d="M1235.5591367930174,543.3369395788759L1383.0386652844027,635.7215882046148L1390.5678575159982,550.149300461635Z" fill="#2c006c" stroke="#2c006c" fill-opacity="1" stroke-opacity="1"/><path d="M1390.5678575159982,550.149300461635L1383.0386652844027,635.7215882046148L1528.8807925768197,632.896019751206Z" fill="#140055" stroke="#140055" fill-opacity="1" stroke-opacity="1"/><path d="M1390.5678575159982,550.149300461635L1528.8807925768197,632.896019751206L1608.9316843776032,566.5540698450059Z" fill="#1d0053" stroke="#1d0053" fill-opacity="1" stroke-opacity="1"/><path d="M1608.9316843776032,566.5540698450059L1528.8807925768197,632.896019751206L1594.9822028400376,867.6518152467906Z" fill="#000026" stroke="#000026" fill-opacity="1" stroke-opacity="1"/><path d="M-58.48383055999875,699.4645815342665L-60.45680036768317,874.2156258551404L31.828883313573897,719.436958595179Z" fill="#562702" stroke="#562702" fill-opacity="1" stroke-opacity="1"/><path d="M31.828883313573897,719.436958595179L-60.45680036768317,874.2156258551404L83.56662597507238,784.3743243953213Z" fill="#5c2f06" stroke="#5c2f06" fill-opacity="1" stroke-opacity="1"/><path d="M31.828883313573897,719.436958595179L83.56662597507238,784.3743243953213L217.7271950757131,686.0007973387837Z" fill="#693f1f" stroke="#693f1f" fill-opacity="1" stroke-opacity="1"/><path d="M217.7271950757131,686.0007973387837L83.56662597507238,784.3743243953213L272.8234460577369,789.4486133009195Z" fill="#744c21" stroke="#744c21" fill-opacity="1" stroke-opacity="1"/><path d="M217.7271950757131,686.0007973387837L272.8234460577369,789.4486133009195L391.02868486661464,668.5833293013275Z" fill="#7b5b44" stroke="#7b5b44" fill-opacity="1" stroke-opacity="1"/><path d="M391.02868486661464,668.5833293013275L272.8234460577369,789.4486133009195L370.5823683645576,781.6418413771316Z" fill="#7c6146" stroke="#7c6146" fill-opacity="1" stroke-opacity="1"/><path d="M391.02868486661464,668.5833293013275L370.5823683645576,781.6418413771316L531.8510062526911,790.8786739222705Z" fill="#7f6d5c" stroke="#7f6d5c" fill-opacity="1" stroke-opacity="1"/><path d="M391.02868486661464,668.5833293013275L531.8510062526911,790.8786739222705L570.0988583732396,651.0471820132807Z" fill="#7c7076" stroke="#7c7076" fill-opacity="1" stroke-opacity="1"/><path d="M570.0988583732396,651.0471820132807L531.8510062526911,790.8786739222705L684.9521739641204,778.3434430137277Z" fill="#746e76" stroke="#746e76" fill-opacity="1" stroke-opacity="1"/><path d="M570.0988583732396,651.0471820132807L684.9521739641204,778.3434430137277L703.8320864550769,719.931804575026Z" fill="#6f6e84" stroke="#6f6e84" fill-opacity="1" stroke-opacity="1"/><path d="M703.8320864550769,719.931804575026L684.9521739641204,778.3434430137277L782.0225833682343,790.6706266570836Z" fill="#676674" stroke="#676674" fill-opacity="1" stroke-opacity="1"/><path d="M703.8320864550769,719.931804575026L782.0225833682343,790.6706266570836L871.694954438135,658.2225372549146Z" fill="#5e5c7c" stroke="#5e5c7c" fill-opacity="1" stroke-opacity="1"/><path d="M871.694954438135,658.2225372549146L782.0225833682343,790.6706266570836L951.1718805879354,818.0418293457478Z" fill="#534e6a" stroke="#534e6a" fill-opacity="1" stroke-opacity="1"/><path d="M871.694954438135,658.2225372549146L951.1718805879354,818.0418293457478L1007.2527917800471,634.2399673303589Z" fill="#484074" stroke="#484074" fill-opacity="1" stroke-opacity="1"/><path d="M1007.2527917800471,634.2399673303589L951.1718805879354,818.0418293457478L1125.7767766946927,669.7098185773939Z" fill="#3b2d68" stroke="#3b2d68" fill-opacity="1" stroke-opacity="1"/><path d="M1125.7767766946927,669.7098185773939L951.1718805879354,818.0418293457478L1160.7386344345286,870.3457946889102Z" fill="#33214c" stroke="#33214c" fill-opacity="1" stroke-opacity="1"/><path d="M1125.7767766946927,669.7098185773939L1160.7386344345286,870.3457946889102L1279.747359524481,793.6847710516304Z" fill="#23083e" stroke="#23083e" fill-opacity="1" stroke-opacity="1"/><path d="M1125.7767766946927,669.7098185773939L1279.747359524481,793.6847710516304L1320.9277608897537,719.3789895856753Z" fill="#1b0045" stroke="#1b0045" fill-opacity="1" stroke-opacity="1"/><path d="M1320.9277608897537,719.3789895856753L1279.747359524481,793.6847710516304L1410.0737272761762,856.834826967679Z" fill="#0c002b" stroke="#0c002b" fill-opacity="1" stroke-opacity="1"/><path d="M1320.9277608897537,719.3789895856753L1410.0737272761762,856.834826967679L1383.0386652844027,635.7215882046148Z" fill="#070031" stroke="#070031" fill-opacity="1" stroke-opacity="1"/><path d="M1383.0386652844027,635.7215882046148L1410.0737272761762,856.834826967679L1528.8807925768197,632.896019751206Z" fill="#000032" stroke="#000032" fill-opacity="1" stroke-opacity="1"/><path d="M1528.8807925768197,632.896019751206L1410.0737272761762,856.834826967679L1594.9822028400376,867.6518152467906Z" fill="#000014" stroke="#000014" fill-opacity="1" stroke-opacity="1"/><path d="M-60.45680036768317,874.2156258551404L1160.7386344345286,870.3457946889102L531.8510062526911,790.8786739222705Z" fill="#786f66" stroke="#786f66" fill-opacity="1" stroke-opacity="1"/><path d="M-60.45680036768317,874.2156258551404L531.8510062526911,790.8786739222705L272.8234460577369,789.4486133009195Z" fill="#795426" stroke="#795426" fill-opacity="1" stroke-opacity="1"/><path d="M-60.45680036768317,874.2156258551404L272.8234460577369,789.4486133009195L83.56662597507238,784.3743243953213Z" fill="#673c10" stroke="#673c10" fill-opacity="1" stroke-opacity="1"/><path d="M272.8234460577369,789.4486133009195L531.8510062526911,790.8786739222705L370.5823683645576,781.6418413771316Z" fill="#7d684b" stroke="#7d684b" fill-opacity="1" stroke-opacity="1"/><path d="M531.8510062526911,790.8786739222705L1160.7386344345286,870.3457946889102L951.1718805879354,818.0418293457478Z" fill="#514c64" stroke="#514c64" fill-opacity="1" stroke-opacity="1"/><path d="M531.8510062526911,790.8786739222705L951.1718805879354,818.0418293457478L782.0225833682343,790.6706266570836Z" fill="#62616f" stroke="#62616f" fill-opacity="1" stroke-opacity="1"/><path d="M531.8510062526911,790.8786739222705L782.0225833682343,790.6706266570836L684.9521739641204,778.3434430137277Z" fill="#6e6d74" stroke="#6e6d74" fill-opacity="1" stroke-opacity="1"/><path d="M1160.7386344345286,870.3457946889102L1594.9822028400376,867.6518152467906L1410.0737272761762,856.834826967679Z" fill="#040024" stroke="#040024" fill-opacity="1" stroke-opacity="1"/><path d="M1160.7386344345286,870.3457946889102L1410.0737272761762,856.834826967679L1279.747359524481,793.6847710516304Z" fill="#140031" stroke="#140031" fill-opacity="1" stroke-opacity="1"/></g></svg>