<svg width="1366" height="677" xmlns="http://www.w3.org/2000/svg"><g><path d="M-61.75614087842405,-80.80733674578369L-120.63208767212927,35.133188660256565L72.27524186018854,-60.618005180731416Z" fill="#f9f2f9" stroke="#f9f2f9" fill-opacity="1" stroke-opacity="1"/><path d="M-61.75614087842405,-80.80733674578369L72.27524186018854,-60.618005180731416L229.6629009069875,-76.36215712409467Z" fill="#f0edf6" stroke="#f0edf6" fill-opacity="1" stroke-opacity="1"/><path d="M-61.75614087842405,-80.80733674578369L229.6629009069875,-76.36215712409467L641.5824959985912,-118.17811152432114Z" fill="#e1e6f2" stroke="#e1e6f2" fill-opacity="1" stroke-opacity="1"/><path d="M72.27524186018854,-60.618005180731416L-120.63208767212927,35.133188660256565L65.25586734060198,120.9121867781505Z" fill="#f1eff8" stroke="#f1eff8" fill-opacity="1" stroke-opacity="1"/><path d="M72.27524186018854,-60.618005180731416L65.25586734060198,120.9121867781505L189.31367783807218,88.51719875819981Z" fill="#e7e9f5" stroke="#e7e9f5" fill-opacity="1" stroke-opacity="1"/><path d="M72.27524186018854,-60.618005180731416L189.31367783807218,88.51719875819981L229.6629009069875,-76.36215712409467Z" fill="#e9eaf4" stroke="#e9eaf4" fill-opacity="1" stroke-opacity="1"/><path d="M229.6629009069875,-76.36215712409467L189.31367783807218,88.51719875819981L361.1599195515737,71.59287380054593Z" fill="#dee4f2" stroke="#dee4f2" fill-opacity="1" stroke-opacity="1"/><path d="M229.6629009069875,-76.36215712409467L361.1599195515737,71.59287380054593L391.2711524171755,-51.56492320820689Z" fill="#dde3f0" stroke="#dde3f0" fill-opacity="1" stroke-opacity="1"/><path d="M229.6629009069875,-76.36215712409467L391.2711524171755,-51.56492320820689L561.1507616005838,-92.93653834611177Z" fill="#d7e1ef" stroke="#d7e1ef" fill-opacity="1" stroke-opacity="1"/><path d="M229.6629009069875,-76.36215712409467L561.1507616005838,-92.93653834611177L641.5824959985912,-118.17811152432114Z" fill="#cfddec" stroke="#cfddec" fill-opacity="1" stroke-opacity="1"/><path d="M391.2711524171755,-51.56492320820689L361.1599195515737,71.59287380054593L573.7164119491354,61.022696434520185Z" fill="#d0ddee" stroke="#d0ddee" fill-opacity="1" stroke-opacity="1"/><path d="M391.2711524171755,-51.56492320820689L573.7164119491354,61.022696434520185L561.1507616005838,-92.93653834611177Z" fill="#cbdce9" stroke="#cbdce9" fill-opacity="1" stroke-opacity="1"/><path d="M561.1507616005838,-92.93653834611177L573.7164119491354,61.022696434520185L671.9939988106489,28.862170409411192Z" fill="#bcd7e3" stroke="#bcd7e3" fill-opacity="1" stroke-opacity="1"/><path d="M561.1507616005838,-92.93653834611177L671.9939988106489,28.862170409411192L641.5824959985912,-118.17811152432114Z" fill="#b9d6e1" stroke="#b9d6e1" fill-opacity="1" stroke-opacity="1"/><path d="M641.5824959985912,-118.17811152432114L671.9939988106489,28.862170409411192L813.8862143270671,-68.3922020252794Z" fill="#acd2db" stroke="#acd2db" fill-opacity="1" stroke-opacity="1"/><path d="M641.5824959985912,-118.17811152432114L813.8862143270671,-68.3922020252794L1257.5999724678695,-122.18119215685874Z" fill="#8fc8cd" stroke="#8fc8cd" fill-opacity="1" stroke-opacity="1"/><path d="M813.8862143270671,-68.3922020252794L671.9939988106489,28.862170409411192L858.4199016680941,56.077591236680746Z" fill="#a1ced6" stroke="#a1ced6" fill-opacity="1" stroke-opacity="1"/><path d="M813.8862143270671,-68.3922020252794L858.4199016680941,56.077591236680746L928.8007475435734,60.8048802241683Z" fill="#92c9cf" stroke="#92c9cf" fill-opacity="1" stroke-opacity="1"/><path d="M813.8862143270671,-68.3922020252794L928.8007475435734,60.8048802241683L1016.5709995664656,-59.39574679359794Z" fill="#8cc7cc" stroke="#8cc7cc" fill-opacity="1" stroke-opacity="1"/><path d="M813.8862143270671,-68.3922020252794L1016.5709995664656,-59.39574679359794L1257.5999724678695,-122.18119215685874Z" fill="#80c2c4" stroke="#80c2c4" fill-opacity="1" stroke-opacity="1"/><path d="M1016.5709995664656,-59.39574679359794L928.8007475435734,60.8048802241683L1075.8028448093683,-40.5725832330063Z" fill="#80c3c5" stroke="#80c3c5" fill-opacity="1" stroke-opacity="1"/><path d="M1016.5709995664656,-59.39574679359794L1075.8028448093683,-40.5725832330063L1257.5999724678695,-122.18119215685874Z" fill="#80bebd" stroke="#80bebd" fill-opacity="1" stroke-opacity="1"/><path d="M1075.8028448093683,-40.5725832330063L928.8007475435734,60.8048802241683L1136.229012813419,71.45631655585021Z" fill="#7cbfc2" stroke="#7cbfc2" fill-opacity="1" stroke-opacity="1"/><path d="M1075.8028448093683,-40.5725832330063L1136.229012813419,71.45631655585021L1257.5999724678695,-122.18119215685874Z" fill="#80bcba" stroke="#80bcba" fill-opacity="1" stroke-opacity="1"/><path d="M1257.5999724678695,-122.18119215685874L1136.229012813419,71.45631655585021L1321.292012394406,55.87371520232409Z" fill="#80b8b4" stroke="#80b8b4" fill-opacity="1" stroke-opacity="1"/><path d="M1257.5999724678695,-122.18119215685874L1321.292012394406,55.87371520232409L1382.8562207752839,-85.69442776497453Z" fill="#80b3af" stroke="#80b3af" fill-opacity="1" stroke-opacity="1"/><path d="M1257.5999724678695,-122.18119215685874L1382.8562207752839,-85.69442776497453L1549.5520200580359,-86.46176913753152Z" fill="#80b0a9" stroke="#80b0a9" fill-opacity="1" stroke-opacity="1"/><path d="M1382.8562207752839,-85.69442776497453L1321.292012394406,55.87371520232409L1446.1486868560314,33.467992255464196Z" fill="#80b0aa" stroke="#80b0aa" fill-opacity="1" stroke-opacity="1"/><path d="M1382.8562207752839,-85.69442776497453L1446.1486868560314,33.467992255464196L1549.5520200580359,-86.46176913753152Z" fill="#80ada4" stroke="#80ada4" fill-opacity="1" stroke-opacity="1"/><path d="M1549.5520200580359,-86.46176913753152L1446.1486868560314,33.467992255464196L1564.1950750723481,114.30922092404217Z" fill="#7da8a0" stroke="#7da8a0" fill-opacity="1" stroke-opacity="1"/><path d="M1549.5520200580359,-86.46176913753152L1564.1950750723481,114.30922092404217L1598.699410026893,271.9551614485681Z" fill="#73a19c" stroke="#73a19c" fill-opacity="1" stroke-opacity="1"/><path d="M-120.63208767212927,35.133188660256565L-105.25816902518272,835.5074250604957L-106.10850057564676,718.6293293023482Z" fill="#7fc3c9" stroke="#7fc3c9" fill-opacity="1" stroke-opacity="1"/><path d="M-120.63208767212927,35.133188660256565L-106.10850057564676,718.6293293023482L-85.94513856805861,221.66921012103558Z" fill="#bddaea" stroke="#bddaea" fill-opacity="1" stroke-opacity="1"/><path d="M-120.63208767212927,35.133188660256565L-85.94513856805861,221.66921012103558L65.25586734060198,120.9121867781505Z" fill="#e9eaf9" stroke="#e9eaf9" fill-opacity="1" stroke-opacity="1"/><path d="M65.25586734060198,120.9121867781505L-85.94513856805861,221.66921012103558L118.6425520805642,202.1125345490873Z" fill="#dce3f7" stroke="#dce3f7" fill-opacity="1" stroke-opacity="1"/><path d="M65.25586734060198,120.9121867781505L118.6425520805642,202.1125345490873L189.31367783807218,88.51719875819981Z" fill="#dbe3f5" stroke="#dbe3f5" fill-opacity="1" stroke-opacity="1"/><path d="M189.31367783807218,88.51719875819981L118.6425520805642,202.1125345490873L215.33126258291304,241.88537041191012Z" fill="#d2def4" stroke="#d2def4" fill-opacity="1" stroke-opacity="1"/><path d="M189.31367783807218,88.51719875819981L215.33126258291304,241.88537041191012L361.1599195515737,71.59287380054593Z" fill="#d1ddf2" stroke="#d1ddf2" fill-opacity="1" stroke-opacity="1"/><path d="M361.1599195515737,71.59287380054593L215.33126258291304,241.88537041191012L404.8377372790128,255.8104475028813Z" fill="#c5d7f0" stroke="#c5d7f0" fill-opacity="1" stroke-opacity="1"/><path d="M361.1599195515737,71.59287380054593L404.8377372790128,255.8104475028813L520.5012071644887,222.3776752129197Z" fill="#bed3ee" stroke="#bed3ee" fill-opacity="1" stroke-opacity="1"/><path d="M361.1599195515737,71.59287380054593L520.5012071644887,222.3776752129197L573.7164119491354,61.022696434520185Z" fill="#bfd5eb" stroke="#bfd5eb" fill-opacity="1" stroke-opacity="1"/><path d="M573.7164119491354,61.022696434520185L520.5012071644887,222.3776752129197L657.8664664877579,246.9063064781949Z" fill="#a9cce4" stroke="#a9cce4" fill-opacity="1" stroke-opacity="1"/><path d="M573.7164119491354,61.022696434520185L657.8664664877579,246.9063064781949L671.9939988106489,28.862170409411192Z" fill="#aacee0" stroke="#aacee0" fill-opacity="1" stroke-opacity="1"/><path d="M671.9939988106489,28.862170409411192L657.8664664877579,246.9063064781949L813.6866473592818,197.16197059024125Z" fill="#97c7da" stroke="#97c7da" fill-opacity="1" stroke-opacity="1"/><path d="M671.9939988106489,28.862170409411192L813.6866473592818,197.16197059024125L858.4199016680941,56.077591236680746Z" fill="#95c8d6" stroke="#95c8d6" fill-opacity="1" stroke-opacity="1"/><path d="M858.4199016680941,56.077591236680746L813.6866473592818,197.16197059024125L928.8007475435734,60.8048802241683Z" fill="#87c3cf" stroke="#87c3cf" fill-opacity="1" stroke-opacity="1"/><path d="M928.8007475435734,60.8048802241683L813.6866473592818,197.16197059024125L999.5513101341203,230.87500829715282Z" fill="#79bdcc" stroke="#79bdcc" fill-opacity="1" stroke-opacity="1"/><path d="M928.8007475435734,60.8048802241683L999.5513101341203,230.87500829715282L1136.229012813419,71.45631655585021Z" fill="#70bac4" stroke="#70bac4" fill-opacity="1" stroke-opacity="1"/><path d="M1136.229012813419,71.45631655585021L999.5513101341203,230.87500829715282L1092.9689291864634,233.54868893511593Z" fill="#69b4c0" stroke="#69b4c0" fill-opacity="1" stroke-opacity="1"/><path d="M1136.229012813419,71.45631655585021L1092.9689291864634,233.54868893511593L1277.1322833141312,193.0169482016936Z" fill="#6bb0ba" stroke="#6bb0ba" fill-opacity="1" stroke-opacity="1"/><path d="M1136.229012813419,71.45631655585021L1277.1322833141312,193.0169482016936L1321.292012394406,55.87371520232409Z" fill="#72b0b4" stroke="#72b0b4" fill-opacity="1" stroke-opacity="1"/><path d="M1321.292012394406,55.87371520232409L1277.1322833141312,193.0169482016936L1396.8589001335204,195.1930302893743Z" fill="#6da9ae" stroke="#6da9ae" fill-opacity="1" stroke-opacity="1"/><path d="M1321.292012394406,55.87371520232409L1396.8589001335204,195.1930302893743L1446.1486868560314,33.467992255464196Z" fill="#74aaaa" stroke="#74aaaa" fill-opacity="1" stroke-opacity="1"/><path d="M1446.1486868560314,33.467992255464196L1396.8589001335204,195.1930302893743L1564.1950750723481,114.30922092404217Z" fill="#71a5a4" stroke="#71a5a4" fill-opacity="1" stroke-opacity="1"/><path d="M1564.1950750723481,114.30922092404217L1396.8589001335204,195.1930302893743L1598.699410026893,271.9551614485681Z" fill="#679da0" stroke="#679da0" fill-opacity="1" stroke-opacity="1"/><path d="M-85.94513856805861,221.66921012103558L-106.10850057564676,718.6293293023482L-57.693103374913335,344.0463144797832Z" fill="#97cdd9" stroke="#97cdd9" fill-opacity="1" stroke-opacity="1"/><path d="M-85.94513856805861,221.66921012103558L-57.693103374913335,344.0463144797832L118.6425520805642,202.1125345490873Z" fill="#cfdff3" stroke="#cfdff3" fill-opacity="1" stroke-opacity="1"/><path d="M118.6425520805642,202.1125345490873L-57.693103374913335,344.0463144797832L71.70027741231024,370.7116442732513Z" fill="#b9d6ea" stroke="#b9d6ea" fill-opacity="1" stroke-opacity="1"/><path d="M118.6425520805642,202.1125345490873L71.70027741231024,370.7116442732513L215.33126258291304,241.88537041191012Z" fill="#bed7ed" stroke="#bed7ed" fill-opacity="1" stroke-opacity="1"/><path d="M215.33126258291304,241.88537041191012L71.70027741231024,370.7116442732513L260.6357781914994,352.9696563957259Z" fill="#a9cfe4" stroke="#a9cfe4" fill-opacity="1" stroke-opacity="1"/><path d="M215.33126258291304,241.88537041191012L260.6357781914994,352.9696563957259L404.8377372790128,255.8104475028813Z" fill="#aecfe7" stroke="#aecfe7" fill-opacity="1" stroke-opacity="1"/><path d="M404.8377372790128,255.8104475028813L260.6357781914994,352.9696563957259L332.9997372813523,392.263307236135Z" fill="#99c8df" stroke="#99c8df" fill-opacity="1" stroke-opacity="1"/><path d="M404.8377372790128,255.8104475028813L332.9997372813523,392.263307236135L560.6543082511052,393.5678169131279Z" fill="#8cc2da" stroke="#8cc2da" fill-opacity="1" stroke-opacity="1"/><path d="M404.8377372790128,255.8104475028813L560.6543082511052,393.5678169131279L520.5012071644887,222.3776752129197Z" fill="#99c6e0" stroke="#99c6e0" fill-opacity="1" stroke-opacity="1"/><path d="M520.5012071644887,222.3776752129197L560.6543082511052,393.5678169131279L657.8664664877579,246.9063064781949Z" fill="#8dc2da" stroke="#8dc2da" fill-opacity="1" stroke-opacity="1"/><path d="M657.8664664877579,246.9063064781949L560.6543082511052,393.5678169131279L671.746370731853,420.99142209626734Z" fill="#6db8cc" stroke="#6db8cc" fill-opacity="1" stroke-opacity="1"/><path d="M657.8664664877579,246.9063064781949L671.746370731853,420.99142209626734L813.1249254569411,393.16085788886994Z" fill="#61b3c6" stroke="#61b3c6" fill-opacity="1" stroke-opacity="1"/><path d="M657.8664664877579,246.9063064781949L813.1249254569411,393.16085788886994L813.6866473592818,197.16197059024125Z" fill="#74bacf" stroke="#74bacf" fill-opacity="1" stroke-opacity="1"/><path d="M813.6866473592818,197.16197059024125L813.1249254569411,393.16085788886994L999.5513101341203,230.87500829715282Z" fill="#65b5c7" stroke="#65b5c7" fill-opacity="1" stroke-opacity="1"/><path d="M999.5513101341203,230.87500829715282L813.1249254569411,393.16085788886994L1013.8976747635752,343.88587425928563Z" fill="#49acba" stroke="#49acba" fill-opacity="1" stroke-opacity="1"/><path d="M999.5513101341203,230.87500829715282L1013.8976747635752,343.88587425928563L1092.9689291864634,233.54868893511593Z" fill="#53aebc" stroke="#53aebc" fill-opacity="1" stroke-opacity="1"/><path d="M1092.9689291864634,233.54868893511593L1013.8976747635752,343.88587425928563L1100.069623766467,409.9745293846354Z" fill="#3ea5b0" stroke="#3ea5b0" fill-opacity="1" stroke-opacity="1"/><path d="M1092.9689291864634,233.54868893511593L1100.069623766467,409.9745293846354L1246.2594417389482,406.0845938976854Z" fill="#369fa7" stroke="#369fa7" fill-opacity="1" stroke-opacity="1"/><path d="M1092.9689291864634,233.54868893511593L1246.2594417389482,406.0845938976854L1277.1322833141312,193.0169482016936Z" fill="#51a4ae" stroke="#51a4ae" fill-opacity="1" stroke-opacity="1"/><path d="M1277.1322833141312,193.0169482016936L1246.2594417389482,406.0845938976854L1422.9975120630115,388.0369739374146Z" fill="#3e999e" stroke="#3e999e" fill-opacity="1" stroke-opacity="1"/><path d="M1277.1322833141312,193.0169482016936L1422.9975120630115,388.0369739374146L1396.8589001335204,195.1930302893743Z" fill="#579ea6" stroke="#579ea6" fill-opacity="1" stroke-opacity="1"/><path d="M1396.8589001335204,195.1930302893743L1422.9975120630115,388.0369739374146L1598.699410026893,271.9551614485681Z" fill="#4e969a" stroke="#4e969a" fill-opacity="1" stroke-opacity="1"/><path d="M1598.699410026893,271.9551614485681L1422.9975120630115,388.0369739374146L1587.6006836537272,417.43082145694643Z" fill="#338a89" stroke="#338a89" fill-opacity="1" stroke-opacity="1"/><path d="M1598.699410026893,271.9551614485681L1587.6006836537272,417.43082145694643L1600.131024303846,690.2997591532767Z" fill="#0f7b75" stroke="#0f7b75" fill-opacity="1" stroke-opacity="1"/><path d="M1598.699410026893,271.9551614485681L1600.131024303846,690.2997591532767L1606.1750412452966,788.0331569118425Z" fill="#006d60" stroke="#006d60" fill-opacity="1" stroke-opacity="1"/><path d="M-57.693103374913335,344.0463144797832L-106.10850057564676,718.6293293023482L-32.059099804610014,488.97413364611566Z" fill="#7bc2ca" stroke="#7bc2ca" fill-opacity="1" stroke-opacity="1"/><path d="M-57.693103374913335,344.0463144797832L-32.059099804610014,488.97413364611566L71.70027741231024,370.7116442732513Z" fill="#9acddb" stroke="#9acddb" fill-opacity="1" stroke-opacity="1"/><path d="M71.70027741231024,370.7116442732513L-32.059099804610014,488.97413364611566L97.7982496842742,519.6150904055685Z" fill="#81c4d1" stroke="#81c4d1" fill-opacity="1" stroke-opacity="1"/><path d="M71.70027741231024,370.7116442732513L97.7982496842742,519.6150904055685L220.47836671117693,494.05036736279726Z" fill="#7ac1cf" stroke="#7ac1cf" fill-opacity="1" stroke-opacity="1"/><path d="M71.70027741231024,370.7116442732513L220.47836671117693,494.05036736279726L260.6357781914994,352.9696563957259Z" fill="#8ac5d7" stroke="#8ac5d7" fill-opacity="1" stroke-opacity="1"/><path d="M260.6357781914994,352.9696563957259L220.47836671117693,494.05036736279726L332.9997372813523,392.263307236135Z" fill="#81c1d3" stroke="#81c1d3" fill-opacity="1" stroke-opacity="1"/><path d="M332.9997372813523,392.263307236135L220.47836671117693,494.05036736279726L421.37758710887283,487.52753066364676Z" fill="#6cb9cb" stroke="#6cb9cb" fill-opacity="1" stroke-opacity="1"/><path d="M332.9997372813523,392.263307236135L421.37758710887283,487.52753066364676L560.6543082511052,393.5678169131279Z" fill="#70b8ce" stroke="#70b8ce" fill-opacity="1" stroke-opacity="1"/><path d="M560.6543082511052,393.5678169131279L421.37758710887283,487.52753066364676L516.2552387919277,534.5442122081295Z" fill="#57b0c2" stroke="#57b0c2" fill-opacity="1" stroke-opacity="1"/><path d="M560.6543082511052,393.5678169131279L516.2552387919277,534.5442122081295L671.746370731853,420.99142209626734Z" fill="#52aec0" stroke="#52aec0" fill-opacity="1" stroke-opacity="1"/><path d="M671.746370731853,420.99142209626734L516.2552387919277,534.5442122081295L662.9395249998197,559.2298709554598Z" fill="#3ba6b5" stroke="#3ba6b5" fill-opacity="1" stroke-opacity="1"/><path d="M671.746370731853,420.99142209626734L662.9395249998197,559.2298709554598L793.2449007406831,560.2839763276279Z" fill="#2da1ac" stroke="#2da1ac" fill-opacity="1" stroke-opacity="1"/><path d="M671.746370731853,420.99142209626734L793.2449007406831,560.2839763276279L813.1249254569411,393.16085788886994Z" fill="#34a5b2" stroke="#34a5b2" fill-opacity="1" stroke-opacity="1"/><path d="M813.1249254569411,393.16085788886994L793.2449007406831,560.2839763276279L1004.4807556318119,536.4609562791884Z" fill="#159ba3" stroke="#159ba3" fill-opacity="1" stroke-opacity="1"/><path d="M813.1249254569411,393.16085788886994L1004.4807556318119,536.4609562791884L1013.8976747635752,343.88587425928563Z" fill="#24a0aa" stroke="#24a0aa" fill-opacity="1" stroke-opacity="1"/><path d="M1013.8976747635752,343.88587425928563L1004.4807556318119,536.4609562791884L1100.069623766467,409.9745293846354Z" fill="#199aa2" stroke="#199aa2" fill-opacity="1" stroke-opacity="1"/><path d="M1100.069623766467,409.9745293846354L1004.4807556318119,536.4609562791884L1171.756025427021,514.185514091514Z" fill="#059195" stroke="#059195" fill-opacity="1" stroke-opacity="1"/><path d="M1100.069623766467,409.9745293846354L1171.756025427021,514.185514091514L1246.2594417389482,406.0845938976854Z" fill="#159296" stroke="#159296" fill-opacity="1" stroke-opacity="1"/><path d="M1246.2594417389482,406.0845938976854L1171.756025427021,514.185514091514L1271.6322293505073,571.6188365826383Z" fill="#018989" stroke="#018989" fill-opacity="1" stroke-opacity="1"/><path d="M1246.2594417389482,406.0845938976854L1271.6322293505073,571.6188365826383L1400.6351424613968,526.0117519879714Z" fill="#008583" stroke="#008583" fill-opacity="1" stroke-opacity="1"/><path d="M1246.2594417389482,406.0845938976854L1400.6351424613968,526.0117519879714L1422.9975120630115,388.0369739374146Z" fill="#168a89" stroke="#168a89" fill-opacity="1" stroke-opacity="1"/><path d="M1422.9975120630115,388.0369739374146L1400.6351424613968,526.0117519879714L1568.168928544037,509.78480295743793Z" fill="#09807c" stroke="#09807c" fill-opacity="1" stroke-opacity="1"/><path d="M1422.9975120630115,388.0369739374146L1568.168928544037,509.78480295743793L1587.6006836537272,417.43082145694643Z" fill="#16817d" stroke="#16817d" fill-opacity="1" stroke-opacity="1"/><path d="M1587.6006836537272,417.43082145694643L1568.168928544037,509.78480295743793L1600.131024303846,690.2997591532767Z" fill="#007269" stroke="#007269" fill-opacity="1" stroke-opacity="1"/><path d="M-32.059099804610014,488.97413364611566L-106.10850057564676,718.6293293023482L93.4254263760522,680.9074555290863Z" fill="#77b3b7" stroke="#77b3b7" fill-opacity="1" stroke-opacity="1"/><path d="M-32.059099804610014,488.97413364611566L93.4254263760522,680.9074555290863L97.7982496842742,519.6150904055685Z" fill="#72b8c0" stroke="#72b8c0" fill-opacity="1" stroke-opacity="1"/><path d="M97.7982496842742,519.6150904055685L93.4254263760522,680.9074555290863L176.79200053680688,674.5089336531237Z" fill="#6daeb4" stroke="#6daeb4" fill-opacity="1" stroke-opacity="1"/><path d="M97.7982496842742,519.6150904055685L176.79200053680688,674.5089336531237L220.47836671117693,494.05036736279726Z" fill="#6ab4bd" stroke="#6ab4bd" fill-opacity="1" stroke-opacity="1"/><path d="M220.47836671117693,494.05036736279726L176.79200053680688,674.5089336531237L397.37227007281035,672.4538149079308Z" fill="#62a9b3" stroke="#62a9b3" fill-opacity="1" stroke-opacity="1"/><path d="M220.47836671117693,494.05036736279726L397.37227007281035,672.4538149079308L421.37758710887283,487.52753066364676Z" fill="#5caebb" stroke="#5caebb" fill-opacity="1" stroke-opacity="1"/><path d="M421.37758710887283,487.52753066364676L397.37227007281035,672.4538149079308L509.47771386709064,640.7259424682707Z" fill="#54a4b1" stroke="#54a4b1" fill-opacity="1" stroke-opacity="1"/><path d="M421.37758710887283,487.52753066364676L509.47771386709064,640.7259424682707L516.2552387919277,534.5442122081295Z" fill="#4fa7b6" stroke="#4fa7b6" fill-opacity="1" stroke-opacity="1"/><path d="M516.2552387919277,534.5442122081295L509.47771386709064,640.7259424682707L662.9395249998197,559.2298709554598Z" fill="#43a0ac" stroke="#43a0ac" fill-opacity="1" stroke-opacity="1"/><path d="M662.9395249998197,559.2298709554598L509.47771386709064,640.7259424682707L690.4765111161396,662.5363743631169Z" fill="#3a99a1" stroke="#3a99a1" fill-opacity="1" stroke-opacity="1"/><path d="M662.9395249998197,559.2298709554598L690.4765111161396,662.5363743631169L793.2449007406831,560.2839763276279Z" fill="#2c979f" stroke="#2c979f" fill-opacity="1" stroke-opacity="1"/><path d="M793.2449007406831,560.2839763276279L690.4765111161396,662.5363743631169L872.0513861393556,638.814597344026Z" fill="#219095" stroke="#219095" fill-opacity="1" stroke-opacity="1"/><path d="M793.2449007406831,560.2839763276279L872.0513861393556,638.814597344026L1004.4807556318119,536.4609562791884Z" fill="#119095" stroke="#119095" fill-opacity="1" stroke-opacity="1"/><path d="M1004.4807556318119,536.4609562791884L872.0513861393556,638.814597344026L971.2949150940403,652.5390203809366Z" fill="#088a8b" stroke="#088a8b" fill-opacity="1" stroke-opacity="1"/><path d="M1004.4807556318119,536.4609562791884L971.2949150940403,652.5390203809366L1081.3141029328108,709.9893964128569Z" fill="#008382" stroke="#008382" fill-opacity="1" stroke-opacity="1"/><path d="M1004.4807556318119,536.4609562791884L1081.3141029328108,709.9893964128569L1171.756025427021,514.185514091514Z" fill="#008685" stroke="#008685" fill-opacity="1" stroke-opacity="1"/><path d="M1171.756025427021,514.185514091514L1081.3141029328108,709.9893964128569L1271.6322293505073,571.6188365826383Z" fill="#00807d" stroke="#00807d" fill-opacity="1" stroke-opacity="1"/><path d="M1271.6322293505073,571.6188365826383L1081.3141029328108,709.9893964128569L1319.8542112717405,701.4103683875874Z" fill="#00766f" stroke="#00766f" fill-opacity="1" stroke-opacity="1"/><path d="M1271.6322293505073,571.6188365826383L1319.8542112717405,701.4103683875874L1400.6351424613968,526.0117519879714Z" fill="#007871" stroke="#007871" fill-opacity="1" stroke-opacity="1"/><path d="M1400.6351424613968,526.0117519879714L1319.8542112717405,701.4103683875874L1439.7706303047016,697.794967982918Z" fill="#007066" stroke="#007066" fill-opacity="1" stroke-opacity="1"/><path d="M1400.6351424613968,526.0117519879714L1439.7706303047016,697.794967982918L1568.168928544037,509.78480295743793Z" fill="#00746b" stroke="#00746b" fill-opacity="1" stroke-opacity="1"/><path d="M1568.168928544037,509.78480295743793L1439.7706303047016,697.794967982918L1600.131024303846,690.2997591532767Z" fill="#006a5d" stroke="#006a5d" fill-opacity="1" stroke-opacity="1"/><path d="M-106.10850057564676,718.6293293023482L-105.25816902518272,835.5074250604957L78.60979887191206,783.7112620705739Z" fill="#7aa39f" stroke="#7aa39f" fill-opacity="1" stroke-opacity="1"/><path d="M-106.10850057564676,718.6293293023482L78.60979887191206,783.7112620705739L93.4254263760522,680.9074555290863Z" fill="#75a6a6" stroke="#75a6a6" fill-opacity="1" stroke-opacity="1"/><path d="M93.4254263760522,680.9074555290863L78.60979887191206,783.7112620705739L176.79200053680688,674.5089336531237Z" fill="#6da4a6" stroke="#6da4a6" fill-opacity="1" stroke-opacity="1"/><path d="M176.79200053680688,674.5089336531237L78.60979887191206,783.7112620705739L270.48538515809923,873.4501365339383Z" fill="#699a9b" stroke="#699a9b" fill-opacity="1" stroke-opacity="1"/><path d="M176.79200053680688,674.5089336531237L270.48538515809923,873.4501365339383L397.37227007281035,672.4538149079308Z" fill="#619a9e" stroke="#619a9e" fill-opacity="1" stroke-opacity="1"/><path d="M397.37227007281035,672.4538149079308L270.48538515809923,873.4501365339383L423.11884025111794,823.4688403550535Z" fill="#5a9194" stroke="#5a9194" fill-opacity="1" stroke-opacity="1"/><path d="M397.37227007281035,672.4538149079308L423.11884025111794,823.4688403550535L509.47771386709064,640.7259424682707Z" fill="#54979f" stroke="#54979f" fill-opacity="1" stroke-opacity="1"/><path d="M509.47771386709064,640.7259424682707L423.11884025111794,823.4688403550535L558.4431985625997,836.7515574907884Z" fill="#4d8e93" stroke="#4d8e93" fill-opacity="1" stroke-opacity="1"/><path d="M509.47771386709064,640.7259424682707L558.4431985625997,836.7515574907884L690.4765111161396,662.5363743631169Z" fill="#3f8f95" stroke="#3f8f95" fill-opacity="1" stroke-opacity="1"/><path d="M690.4765111161396,662.5363743631169L558.4431985625997,836.7515574907884L720.5142235616222,818.0046204477549Z" fill="#358586" stroke="#358586" fill-opacity="1" stroke-opacity="1"/><path d="M690.4765111161396,662.5363743631169L720.5142235616222,818.0046204477549L810.8954767463729,792.2221929067746Z" fill="#288383" stroke="#288383" fill-opacity="1" stroke-opacity="1"/><path d="M690.4765111161396,662.5363743631169L810.8954767463729,792.2221929067746L872.0513861393556,638.814597344026Z" fill="#208788" stroke="#208788" fill-opacity="1" stroke-opacity="1"/><path d="M872.0513861393556,638.814597344026L810.8954767463729,792.2221929067746L971.2949150940403,652.5390203809366Z" fill="#128382" stroke="#128382" fill-opacity="1" stroke-opacity="1"/><path d="M971.2949150940403,652.5390203809366L810.8954767463729,792.2221929067746L1015.6084256479517,863.7206272920594Z" fill="#0b7873" stroke="#0b7873" fill-opacity="1" stroke-opacity="1"/><path d="M971.2949150940403,652.5390203809366L1015.6084256479517,863.7206272920594L1081.3141029328108,709.9893964128569Z" fill="#007771" stroke="#007771" fill-opacity="1" stroke-opacity="1"/><path d="M1081.3141029328108,709.9893964128569L1015.6084256479517,863.7206272920594L1165.7894851174206,873.777149268426Z" fill="#006b60" stroke="#006b60" fill-opacity="1" stroke-opacity="1"/><path d="M1081.3141029328108,709.9893964128569L1165.7894851174206,873.777149268426L1288.6401813477278,793.1829914916307Z" fill="#00695d" stroke="#00695d" fill-opacity="1" stroke-opacity="1"/><path d="M1081.3141029328108,709.9893964128569L1288.6401813477278,793.1829914916307L1319.8542112717405,701.4103683875874Z" fill="#006d63" stroke="#006d63" fill-opacity="1" stroke-opacity="1"/><path d="M1319.8542112717405,701.4103683875874L1288.6401813477278,793.1829914916307L1439.7706303047016,697.794967982918Z" fill="#00685b" stroke="#00685b" fill-opacity="1" stroke-opacity="1"/><path d="M1439.7706303047016,697.794967982918L1288.6401813477278,793.1829914916307L1439.2483691917732,867.9011850617826Z" fill="#005f4f" stroke="#005f4f" fill-opacity="1" stroke-opacity="1"/><path d="M1439.7706303047016,697.794967982918L1439.2483691917732,867.9011850617826L1606.1750412452966,788.0331569118425Z" fill="#005a47" stroke="#005a47" fill-opacity="1" stroke-opacity="1"/><path d="M1439.7706303047016,697.794967982918L1606.1750412452966,788.0331569118425L1600.131024303846,690.2997591532767Z" fill="#005f4d" stroke="#005f4d" fill-opacity="1" stroke-opacity="1"/><path d="M-105.25816902518272,835.5074250604957L270.48538515809923,873.4501365339383L78.60979887191206,783.7112620705739Z" fill="#709794" stroke="#709794" fill-opacity="1" stroke-opacity="1"/><path d="M270.48538515809923,873.4501365339383L1165.7894851174206,873.777149268426L1015.6084256479517,863.7206272920594Z" fill="#1c726b" stroke="#1c726b" fill-opacity="1" stroke-opacity="1"/><path d="M270.48538515809923,873.4501365339383L1015.6084256479517,863.7206272920594L558.4431985625997,836.7515574907884Z" fill="#3b7d7b" stroke="#3b7d7b" fill-opacity="1" stroke-opacity="1"/><path d="M270.48538515809923,873.4501365339383L558.4431985625997,836.7515574907884L423.11884025111794,823.4688403550535Z" fill="#56888a" stroke="#56888a" fill-opacity="1" stroke-opacity="1"/><path d="M558.4431985625997,836.7515574907884L1015.6084256479517,863.7206272920594L720.5142235616222,818.0046204477549Z" fill="#247873" stroke="#247873" fill-opacity="1" stroke-opacity="1"/><path d="M720.5142235616222,818.0046204477549L1015.6084256479517,863.7206272920594L810.8954767463729,792.2221929067746Z" fill="#187570" stroke="#187570" fill-opacity="1" stroke-opacity="1"/><path d="M1165.7894851174206,873.777149268426L1439.2483691917732,867.9011850617826L1288.6401813477278,793.1829914916307Z" fill="#005d4c" stroke="#005d4c" fill-opacity="1" stroke-opacity="1"/></g></svg>